<svg width="380" height="229" viewBox="0 0 380 229" fill="none" xmlns="http://www.w3.org/2000/svg">
<path d="M240.969 140.998V144.143H264.498V140.998H240.969Z" fill="#E0E0E0"/>
<path d="M244.175 141.133C244.259 141.133 244.321 141.793 244.321 142.604C244.321 143.416 244.254 144.076 244.175 144.076C244.097 144.076 244.03 143.416 244.03 142.604C244.03 141.793 244.097 141.133 244.175 141.133Z" fill="#FAFAFA"/>
<path d="M243.666 141.065C243.75 141.065 243.812 141.726 243.812 142.537C243.812 143.348 243.745 144.009 243.666 144.009C243.588 144.009 243.521 143.348 243.521 142.537C243.521 141.726 243.588 141.065 243.666 141.065Z" fill="#FAFAFA"/>
<path d="M262.68 141.133C262.763 141.133 262.825 141.793 262.825 142.604C262.825 143.416 262.758 144.076 262.68 144.076C262.601 144.076 262.534 143.416 262.534 142.604C262.534 141.793 262.601 141.133 262.68 141.133Z" fill="#FAFAFA"/>
<path d="M262.165 144.009C262.245 144.009 262.31 143.35 262.31 142.537C262.31 141.724 262.245 141.065 262.165 141.065C262.085 141.065 262.019 141.724 262.019 142.537C262.019 143.35 262.085 144.009 262.165 144.009Z" fill="#FAFAFA"/>
<path d="M259.093 142.666C259.093 142.75 256.396 142.811 253.078 142.811C249.76 142.811 247.057 142.744 247.057 142.666C247.057 142.587 249.748 142.52 253.078 142.52C256.407 142.52 259.093 142.587 259.093 142.666Z" fill="#FAFAFA"/>
<path d="M240.868 155.149V161.433H264.397V155.149H240.868Z" fill="#E0E0E0"/>
<path d="M264.699 159.67C264.699 159.67 264.66 159.698 264.57 159.743C264.486 159.788 264.352 159.849 264.178 159.922C263.832 160.068 263.3 160.269 262.584 160.381C261.879 160.482 260.933 160.51 259.993 160.012C259.534 159.765 259.098 159.39 258.762 158.898C258.438 158.406 258.231 157.757 258.337 157.085C258.393 156.749 258.533 156.419 258.768 156.151C258.997 155.877 259.366 155.675 259.758 155.697C260.15 155.714 260.508 155.944 260.754 156.235C261.006 156.531 261.174 156.906 261.207 157.309C261.302 158.104 260.967 158.932 260.396 159.536C259.836 160.163 258.997 160.543 258.135 160.644C257.263 160.745 256.367 160.61 255.511 160.319C254.655 160.023 253.816 159.547 253.217 158.781C252.926 158.4 252.713 157.924 252.68 157.421C252.635 156.923 252.797 156.38 253.183 156.011C253.374 155.826 253.642 155.697 253.922 155.686C254.202 155.675 254.465 155.765 254.689 155.905C255.142 156.184 255.433 156.666 255.556 157.175C255.78 158.204 255.371 159.273 254.627 159.944C253.883 160.621 252.909 160.924 251.98 161.024C251.046 161.119 250.1 161.047 249.233 160.756C248.371 160.47 247.594 159.9 247.146 159.133C246.693 158.383 246.542 157.432 246.883 156.638C247.045 156.24 247.409 155.893 247.84 155.826C248.265 155.748 248.696 155.865 249.026 156.112C249.692 156.638 249.798 157.544 249.586 158.232C249.367 158.937 248.892 159.48 248.399 159.905C247.392 160.756 246.206 161.119 245.171 161.159C244.13 161.198 243.257 160.907 242.614 160.577C241.97 160.241 241.545 159.86 241.282 159.586C241.153 159.446 241.058 159.34 241.002 159.262C240.941 159.183 240.913 159.144 240.918 159.139C240.946 159.1 241.388 159.827 242.67 160.47C243.302 160.778 244.164 161.041 245.165 160.991C246.161 160.94 247.308 160.571 248.265 159.743C248.735 159.335 249.177 158.814 249.367 158.165C249.558 157.544 249.435 156.738 248.881 156.307C248.606 156.1 248.237 156.005 247.89 156.072C247.543 156.128 247.264 156.397 247.118 156.738C246.821 157.438 246.95 158.299 247.375 158.993C247.789 159.698 248.506 160.219 249.323 160.487C250.14 160.761 251.052 160.828 251.947 160.739C252.837 160.644 253.749 160.353 254.431 159.732C255.103 159.133 255.466 158.148 255.271 157.247C255.164 156.805 254.912 156.397 254.538 156.162C254.168 155.921 253.693 155.927 253.39 156.229C253.088 156.52 252.937 156.979 252.982 157.41C253.01 157.846 253.189 158.266 253.458 158.613C253.995 159.312 254.801 159.782 255.612 160.062C256.434 160.347 257.296 160.476 258.113 160.386C258.93 160.297 259.697 159.95 260.217 159.374C260.748 158.82 261.056 158.064 260.972 157.348C260.916 156.654 260.39 155.983 259.752 155.938C259.439 155.916 259.137 156.072 258.936 156.307C258.729 156.542 258.6 156.839 258.544 157.136C258.443 157.74 258.622 158.339 258.924 158.809C259.232 159.279 259.641 159.642 260.077 159.883C260.955 160.37 261.879 160.364 262.573 160.28C263.278 160.191 263.809 160.006 264.162 159.883C264.514 159.754 264.699 159.676 264.704 159.687L264.699 159.67Z" fill="#FAFAFA"/>
<path d="M242.967 144.232V155.138H264.392V144.232H242.967Z" fill="#EBEBEB"/>
<path d="M246.531 144.607C246.615 144.607 246.676 146.969 246.676 149.884C246.676 152.799 246.609 155.16 246.531 155.16C246.453 155.16 246.386 152.799 246.386 149.884C246.386 146.969 246.453 144.607 246.531 144.607Z" fill="#E0E0E0"/>
<path d="M248.154 144.473C248.238 144.473 248.299 146.806 248.299 149.682C248.299 152.558 248.232 154.892 248.154 154.892C248.076 154.892 248.009 152.558 248.009 149.682C248.009 146.806 248.076 144.473 248.154 144.473Z" fill="#E0E0E0"/>
<path d="M261.974 144.121C262.058 144.121 262.12 146.577 262.12 149.61C262.12 152.642 262.053 155.099 261.974 155.099C261.896 155.099 261.829 152.642 261.829 149.61C261.829 146.577 261.896 144.121 261.974 144.121Z" fill="#E0E0E0"/>
<path d="M260.066 144.272C260.15 144.272 260.212 146.666 260.212 149.615C260.212 152.564 260.145 154.959 260.066 154.959C259.988 154.959 259.921 152.564 259.921 149.615C259.921 146.666 259.988 144.272 260.066 144.272Z" fill="#E0E0E0"/>
<path d="M259.848 20.0646H115.408V115.875H259.848V20.0646Z" fill="#E0E0E0"/>
<path d="M0.0419356 27.0644C-0.17069 13.5123 10.6285 2.30471 24.1246 2.08649C37.6152 1.86827 48.7724 12.7178 48.9906 26.2755C49.2089 39.8332 38.4041 51.0352 24.9136 51.2534C11.4174 51.4716 0.260157 40.6221 0.0419356 27.0644ZM36.2107 26.4825C36.1044 20.003 30.772 14.8105 24.3204 14.9168C17.8689 15.0231 12.7044 20.3779 12.8107 26.8574C12.917 33.3369 18.2494 38.5294 24.7009 38.4231C31.1525 38.3168 36.317 32.962 36.2107 26.4825Z" fill="#F5F5F5"/>
<path d="M0.0419356 27.0644C-0.17069 13.5123 10.6285 2.30471 24.1246 2.08649L24.3316 14.9168C17.8801 15.0231 12.7156 20.3779 12.8219 26.8574C12.9282 33.3369 18.2606 38.5238 24.7121 38.4231L24.9192 51.2534C11.4174 51.4716 0.260157 40.6221 0.0419356 27.0644Z" fill="#E0E0E0"/>
<path d="M21.9255 0.111342C37.7102 -0.146047 50.3055 12.1079 50.5573 27.9653L35.6175 28.2059C35.4944 20.6241 29.7255 15.8512 22.1773 15.9688L21.9255 0.111342Z" fill="#EBEBEB"/>
<path d="M117.12 224.253C116.493 223.715 115.089 222.003 116.169 220.017C116.566 219.289 117.405 218.926 118.172 218.607C118.933 218.288 119.739 218.008 120.365 217.471C121.557 216.458 121.882 214.774 122.676 213.425C123.583 211.876 125.278 210.712 127.063 210.796C129.111 210.891 130.818 212.564 131.595 214.466C132.368 216.374 132.396 218.489 132.412 220.548C132.424 221.69 132.373 222.971 131.534 223.738C130.762 224.448 129.603 224.454 128.557 224.426C124.825 224.314 121.098 224.197 117.366 224.085" fill="#F5F5F5"/>
<path d="M138.523 193.478H109.091L114.39 225.092C114.619 226.474 115.621 227.537 116.902 227.906C116.936 227.918 116.969 227.923 117.003 227.934C117.092 227.957 117.176 227.985 117.266 228.001C117.462 228.041 117.663 228.063 117.865 228.069C117.865 228.08 117.865 228.091 117.865 228.097L118.01 228.074H131.126C131.372 228.074 131.613 228.046 131.848 228.001C133.397 227.761 134.634 226.519 134.824 224.913L137.381 203.13L137.499 202.263H137.488L138.501 193.634L138.517 193.472L138.523 193.478ZM132.972 213.644H129.951L130.253 204.467H133.75L132.967 213.644H132.972ZM134.047 204.467H136.939L135.865 213.644H133.269L134.052 204.467H134.047ZM125.418 223.811L125.234 215.843H129.581L129.318 223.811H125.418ZM120.718 215.843H124.943L125.127 223.811H121.339L120.718 215.843ZM121.043 223.811H117.501C117.165 221.656 116.729 218.864 116.253 215.843H120.427L121.048 223.811H121.043ZM120.545 213.638L119.834 204.462H124.68L124.892 213.638H120.545ZM125.183 213.638L124.971 204.462H129.962L129.66 213.638H125.189H125.183ZM124.92 202.263L124.725 193.769H130.314L130.035 202.263H124.92ZM124.629 202.263H119.661L119 193.769H124.434L124.629 202.263ZM119.37 202.263H114.11C113.925 201.088 113.746 199.98 113.59 198.978C113.041 195.542 112.834 194.25 112.722 193.763H118.71L119.37 202.257V202.263ZM119.543 204.462L120.254 213.638H115.906C115.761 212.709 115.61 211.764 115.464 210.824C115.123 208.658 114.782 206.493 114.463 204.462H119.543ZM115.615 213.638H112.773L111.234 204.462H114.166C114.614 207.298 115.112 210.454 115.61 213.638H115.615ZM115.962 215.837C116.393 218.596 116.824 221.315 117.21 223.805H114.479L113.142 215.837H115.957H115.962ZM129.621 223.805L129.884 215.837H132.788L132.105 223.805H129.615H129.621ZM130.337 202.263L130.617 193.769H134.673L133.946 202.263H130.331H130.337ZM112.454 193.769C112.571 194.384 113.109 197.725 113.825 202.263H110.87L109.444 193.769H112.448H112.454ZM134.679 223.811H132.402L133.084 215.843H135.613L134.679 223.811ZM137.208 202.268H134.248L134.975 193.774H138.21L137.214 202.268H137.208Z" fill="#E0E0E0"/>
<path d="M351.501 34.9988H345.162V60.3124H351.501V34.9988Z" fill="#E0E0E0"/>
<path d="M360.823 40.5215H354.484V60.3125H360.823V40.5215Z" fill="#E0E0E0"/>
<path d="M370.285 45.0425H363.945V60.3124H370.285V45.0425Z" fill="#E0E0E0"/>
<path d="M379.048 51.2479H372.708V60.318H379.048V51.2479Z" fill="#E0E0E0"/>
<path d="M368.847 91.7922C360.057 83.6285 346.23 84.0985 338.016 92.8386C329.808 101.573 330.278 115.321 339.068 123.485C347.859 131.648 361.685 131.178 369.899 122.438C378.107 113.704 377.637 99.9559 368.847 91.7922ZM361.579 114.711C357.651 118.891 351.042 119.109 346.84 115.209C342.638 111.309 342.414 104.734 346.337 100.555C350.265 96.3749 356.873 96.1567 361.075 100.057C365.277 103.957 365.501 110.531 361.579 114.711Z" fill="#F5F5F5"/>
<path d="M338.017 92.8387C346.225 84.1042 360.057 83.6342 368.847 91.7923L361.075 100.062C356.873 96.1623 350.259 96.3862 346.337 100.56C342.409 104.74 342.638 111.309 346.84 115.215L339.068 123.485C330.278 115.321 329.808 101.579 338.017 92.8387Z" fill="#EBEBEB"/>
<path d="M367.957 88.2504C378.723 98.2494 380.016 114.498 369.955 125.202L359.033 115.741C363.839 110.621 364.886 103.789 359.738 99.0104L367.957 88.2504Z" fill="#FAFAFA"/>
<path d="M74.1308 127.659H132.318C133.314 127.659 134.125 128.47 134.125 129.466V143.259C134.125 144.255 133.314 145.066 132.318 145.066H74.1308C73.1348 145.066 72.3235 144.255 72.3235 143.259V129.466C72.3235 128.47 73.1348 127.659 74.1308 127.659Z" fill="#E0E0E0"/>
<path d="M85.3497 139.264C84.046 140.892 81.6791 141.155 80.0564 139.851C78.4338 138.542 78.1708 136.164 79.4745 134.536C80.7783 132.907 83.1451 132.644 84.7678 133.948C86.3905 135.257 86.6534 137.635 85.3497 139.264Z" fill="#F5F5F5"/>
<path d="M84.5327 135.616C84.5887 135.671 83.6822 136.651 82.5072 137.803C82.3337 137.971 82.1714 138.128 82.0092 138.285L81.9085 138.385L81.8133 138.285C80.9013 137.345 80.2522 136.612 80.3026 136.567C80.3529 136.516 81.0803 137.165 82.0148 138.089H81.8133C81.9756 137.932 82.1379 137.77 82.3057 137.602C83.4808 136.449 84.4768 135.565 84.5327 135.621V135.616Z" fill="#E0E0E0"/>
<path d="M128.043 135.028C128.043 135.106 119.745 135.173 109.516 135.173C99.288 135.173 90.99 135.106 90.99 135.028C90.99 134.95 99.2824 134.883 109.516 134.883C119.75 134.883 128.043 134.95 128.043 135.028Z" fill="#FAFAFA"/>
<path d="M128.211 138.184C128.211 138.262 119.913 138.329 109.684 138.329C99.456 138.329 91.158 138.262 91.158 138.184C91.158 138.105 99.4504 138.038 109.684 138.038C119.918 138.038 128.211 138.105 128.211 138.184Z" fill="#FAFAFA"/>
<path d="M323.379 140.478L322.249 228.326H372.792V141.675L323.379 140.478Z" fill="#F5F5F5"/>
<path d="M350.606 141.138L350.158 228.326H372.792V141.675L350.606 141.138Z" fill="#E0E0E0"/>
<path d="M324.968 142.061V160.028H348.91V142.906L324.968 142.061Z" fill="#E0E0E0"/>
<path d="M333.221 147.002V149.654H340.545V146.762L333.221 147.002Z" fill="#F5F5F5"/>
<path d="M340.785 151.887H333.22V152.973H340.785V151.887Z" fill="#F5F5F5"/>
<path d="M324.968 205.021V222.994H348.91V205.872L324.968 205.021Z" fill="#E0E0E0"/>
<path d="M333.221 209.967V212.62H340.545V209.727L333.221 209.967Z" fill="#F5F5F5"/>
<path d="M340.785 214.852H333.22V215.938H340.785V214.852Z" fill="#F5F5F5"/>
<path d="M324.968 162.317V180.284H348.91V163.162L324.968 162.317Z" fill="#E0E0E0"/>
<path d="M333.221 167.258V169.91H340.545V167.017L333.221 167.258Z" fill="#F5F5F5"/>
<path d="M340.785 172.142H333.22V173.228H340.785V172.142Z" fill="#F5F5F5"/>
<path d="M348.597 183.831H324.654V201.798H348.597V183.831Z" fill="#E0E0E0"/>
<path d="M333.07 191.928V194.423H339.952V191.698L333.07 191.928Z" fill="#F5F5F5"/>
<path d="M340.182 196.522H333.07V197.54H340.182V196.522Z" fill="#F5F5F5"/>
<path d="M374.689 227.565C374.689 227.643 291.815 227.71 189.615 227.71C87.4144 227.71 4.52393 227.643 4.52393 227.565C4.52393 227.487 87.3753 227.419 189.615 227.419C291.854 227.419 374.689 227.487 374.689 227.565Z" fill="#263238"/>
<path d="M256.335 22.4705H106.752V120.586H256.335V22.4705Z" fill="#FAFAFA"/>
<path d="M256.329 120.586C256.329 119.641 256.284 82.3135 256.212 22.4705L256.329 22.588C215.281 22.5936 163.227 22.6048 106.758 22.616H106.747L106.892 22.4705C106.892 57.3635 106.887 90.5667 106.881 120.586L106.747 120.452C194.757 120.53 255.132 120.586 256.329 120.586C255.132 120.586 194.757 120.642 106.747 120.72H106.612V120.586C106.612 90.5667 106.607 57.3635 106.601 22.4705V22.325H106.758C163.221 22.3362 215.281 22.3474 256.329 22.353H256.447V22.4705C256.374 82.3135 256.329 119.641 256.329 120.586Z" fill="#263238"/>
<path d="M152.461 76.6509L167.172 76.8524C167.06 84.6916 160.452 91.0815 152.461 91.0815C152.433 91.0815 152.405 91.0815 152.377 91.0815L152.461 76.6509Z" fill="#455A64"/>
<path d="M176.79 96.5706C176.79 96.5706 176.684 96.5874 176.477 96.5986C176.242 96.6042 175.945 96.6098 175.576 96.621C174.764 96.6322 173.645 96.6434 172.291 96.6601H172.252L172.224 96.6266C170.909 94.9703 169.219 92.8385 167.373 90.5108C165.94 88.6811 164.598 86.9689 163.462 85.5197L163.54 85.5588C161.766 85.5421 160.283 85.5309 159.209 85.5197C158.711 85.5085 158.308 85.4973 158.001 85.4917C157.721 85.4805 157.57 85.4749 157.57 85.4637C157.57 85.4525 157.721 85.4413 158.001 85.4357C158.308 85.4301 158.711 85.419 159.209 85.4078C160.283 85.3966 161.766 85.3854 163.54 85.3686H163.585L163.613 85.4078C164.754 86.8514 166.108 88.5524 167.552 90.3765C169.382 92.7154 171.066 94.8584 172.364 96.5259L172.297 96.4923C173.656 96.5091 174.776 96.5203 175.581 96.5315C175.951 96.5426 176.247 96.5482 176.482 96.5538C176.689 96.5594 176.796 96.5706 176.796 96.5818L176.79 96.5706Z" fill="#263238"/>
<path d="M182.066 98.2716C182.066 98.3332 179.935 98.3836 177.305 98.3836C174.675 98.3836 172.543 98.3332 172.543 98.2716C172.543 98.2101 174.675 98.1597 177.305 98.1597C179.935 98.1597 182.066 98.2101 182.066 98.2716Z" fill="#263238"/>
<path d="M182.066 100.034C182.066 100.096 179.935 100.146 177.305 100.146C174.675 100.146 172.543 100.096 172.543 100.034C172.543 99.9727 174.675 99.9223 177.305 99.9223C179.935 99.9223 182.066 99.9727 182.066 100.034Z" fill="#263238"/>
<path d="M150.139 74.5582L149.932 88.9888C141.942 88.8769 135.424 82.3974 135.424 74.5582C135.424 66.7191 142.065 60.1221 150.139 60.1221C158.214 60.1221 164.855 66.6351 164.855 74.5582H150.139Z" fill="#3069B1"/>
<path d="M144.393 69.8357C144.393 69.8357 144.303 69.8637 144.135 69.8972C143.934 69.9308 143.693 69.97 143.402 70.0147C142.725 70.1099 141.83 70.233 140.761 70.384H140.716L140.683 70.3561C139.676 69.3769 138.467 68.1962 137.158 66.9261C135.462 65.2642 133.94 63.7535 132.844 62.6512C132.323 62.1196 131.887 61.6776 131.557 61.3362C131.254 61.0229 131.092 60.8438 131.103 60.8327C131.115 60.8215 131.294 60.9781 131.618 61.2747C131.965 61.5992 132.413 62.0245 132.955 62.5393C134.08 63.6136 135.619 65.1076 137.314 66.7694C138.612 68.0507 139.815 69.2426 140.811 70.2274L140.733 70.1994C141.807 70.0819 142.708 69.9812 143.385 69.9084C143.676 69.8804 143.923 69.8581 144.124 69.8413C144.292 69.8301 144.387 69.8245 144.387 69.8413L144.393 69.8357Z" fill="#263238"/>
<path d="M127.383 60.2004C127.383 60.262 125.251 60.3123 122.621 60.3123C119.991 60.3123 117.859 60.262 117.859 60.2004C117.859 60.1389 119.991 60.0885 122.621 60.0885C125.251 60.0885 127.383 60.1389 127.383 60.2004Z" fill="#263238"/>
<path d="M127.383 61.963C127.383 62.0245 125.251 62.0749 122.621 62.0749C119.991 62.0749 117.859 62.0245 117.859 61.963C117.859 61.9014 119.991 61.8511 122.621 61.8511C125.251 61.8511 127.383 61.9014 127.383 61.963Z" fill="#263238"/>
<path d="M201.611 46.044L201.556 37.0745C198.914 37.0913 196.223 38.1321 194.158 39.9618C191.724 42.1104 190.169 45.3446 190.594 49.2502C190.639 49.6754 190.706 50.1118 190.801 50.5539C190.801 50.5651 190.801 50.5763 190.807 50.5875L201.611 48.1535V46.044Z" fill="#3069B1"/>
<g opacity="0.3">
<path d="M201.611 46.044L201.556 37.0745C198.914 37.0913 196.223 38.1321 194.158 39.9618C191.724 42.1104 190.169 45.3446 190.594 49.2502C190.639 49.6754 190.706 50.1118 190.801 50.5539C190.801 50.5651 190.801 50.5763 190.807 50.5875L201.611 48.1535V46.044Z" fill="white"/>
</g>
<path d="M212.746 43.2854C211.236 40.1296 208.259 37.6061 204.023 37.1808C203.911 37.1696 203.794 37.1584 203.682 37.1528C203.609 37.1528 203.536 37.1416 203.463 37.136C203.251 37.1249 203.033 37.1193 202.814 37.1193C202.803 37.1193 202.792 37.1193 202.786 37.1193C202.775 37.1193 202.77 37.1193 202.758 37.1193L202.814 46.0887L202.826 48.1982L213.636 50.5595H213.647C213.815 49.8041 213.893 49.0207 213.888 48.2318C213.882 46.5531 213.49 44.8465 212.746 43.291V43.2854Z" fill="#3069B1"/>
<g opacity="0.3">
<path d="M212.746 43.2854C211.236 40.1296 208.259 37.6061 204.023 37.1808C203.911 37.1696 203.794 37.1584 203.682 37.1528C203.609 37.1528 203.536 37.1416 203.463 37.136C203.251 37.1249 203.033 37.1193 202.814 37.1193C202.803 37.1193 202.792 37.1193 202.786 37.1193C202.775 37.1193 202.77 37.1193 202.758 37.1193L202.814 46.0887L202.826 48.1982L213.636 50.5595H213.647C213.815 49.8041 213.893 49.0207 213.888 48.2318C213.882 46.5531 213.49 44.8465 212.746 43.291V43.2854Z" fill="black"/>
</g>
<path d="M202.188 49.2725L191.383 51.7065C192.491 56.6529 196.906 60.3514 202.188 60.3514C207.47 60.3514 211.93 56.6193 213.009 51.6338L202.199 49.2725" fill="#3069B1"/>
<path d="M244.254 47.6554C244.254 47.7338 238.664 47.8009 231.776 47.8009C224.888 47.8009 219.298 47.7338 219.298 47.6554C219.298 47.5771 224.883 47.5099 231.776 47.5099C238.67 47.5099 244.254 47.5771 244.254 47.6554Z" fill="#263238"/>
<path d="M244.254 44.813C244.254 44.8913 238.664 44.9584 231.776 44.9584C224.888 44.9584 219.298 44.8913 219.298 44.813C219.298 44.7346 224.883 44.6675 231.776 44.6675C238.67 44.6675 244.254 44.7346 244.254 44.813Z" fill="#263238"/>
<path d="M244.254 41.9649C244.254 42.0433 238.664 42.1104 231.776 42.1104C224.888 42.1104 219.298 42.0433 219.298 41.9649C219.298 41.8866 224.883 41.8195 231.776 41.8195C238.67 41.8195 244.254 41.8866 244.254 41.9649Z" fill="#263238"/>
<path d="M244.254 50.3021C244.254 50.3804 238.664 50.4476 231.776 50.4476C224.888 50.4476 219.298 50.3804 219.298 50.3021C219.298 50.2238 224.883 50.1566 231.776 50.1566C238.67 50.1566 244.254 50.2238 244.254 50.3021Z" fill="#263238"/>
<path d="M236.527 53.1838C236.527 53.2621 232.689 53.3292 227.955 53.3292C223.221 53.3292 219.383 53.2621 219.383 53.1838C219.383 53.1054 223.221 53.0383 227.955 53.0383C232.689 53.0383 236.527 53.1054 236.527 53.1838Z" fill="#263238"/>
<path d="M195.691 73.7748H193.123V102.485H195.691V73.7748Z" fill="#3069B1"/>
<path d="M200.655 83.5276H198.086V102.485H200.655V83.5276Z" fill="#3069B1"/>
<path d="M205.618 77.3447H203.05V102.63H205.618V77.3447Z" fill="#3069B1"/>
<path d="M210.581 74.8828H208.012V102.485H210.581V74.8828Z" fill="#3069B1"/>
<path d="M215.544 84.1096H212.976V102.485H215.544V84.1096Z" fill="#3069B1"/>
<path d="M220.507 87.713H217.939V102.485H220.507V87.713Z" fill="#3069B1"/>
<path d="M225.47 76.7236H222.902V102.485H225.47V76.7236Z" fill="#3069B1"/>
<path d="M230.434 81.3678H227.865V102.485H230.434V81.3678Z" fill="#3069B1"/>
<path d="M235.397 77.6581H232.828V102.485H235.397V77.6581Z" fill="#3069B1"/>
<path d="M240.36 85.57H237.791V102.485H240.36V85.57Z" fill="#3069B1"/>
<path d="M245.323 82.3526H242.755V102.485H245.323V82.3526Z" fill="#3069B1"/>
<path d="M246.375 104.482C246.375 104.538 234.182 104.589 219.142 104.589C204.101 104.589 191.909 104.544 191.909 104.482C191.909 104.421 204.101 104.376 219.142 104.376C234.182 104.376 246.375 104.421 246.375 104.482Z" fill="#263238"/>
<path d="M196.794 106.743C196.794 106.799 195.938 106.849 194.886 106.849C193.834 106.849 192.978 106.805 192.978 106.743C192.978 106.681 193.834 106.637 194.886 106.637C195.938 106.637 196.794 106.681 196.794 106.743Z" fill="#263238"/>
<path d="M203.117 106.861C203.117 106.916 202.098 106.967 200.839 106.967C199.58 106.967 198.562 106.922 198.562 106.861C198.562 106.799 199.58 106.754 200.839 106.754C202.098 106.754 203.117 106.799 203.117 106.861Z" fill="#263238"/>
<path d="M208.516 106.861C208.516 106.916 207.498 106.967 206.239 106.967C204.98 106.967 203.962 106.922 203.962 106.861C203.962 106.799 204.98 106.754 206.239 106.754C207.498 106.754 208.516 106.799 208.516 106.861Z" fill="#263238"/>
<path d="M213.916 106.861C213.916 106.916 212.898 106.967 211.639 106.967C210.38 106.967 209.361 106.922 209.361 106.861C209.361 106.799 210.38 106.754 211.639 106.754C212.898 106.754 213.916 106.799 213.916 106.861Z" fill="#263238"/>
<path d="M219.31 106.861C219.31 106.916 218.292 106.967 217.033 106.967C215.774 106.967 214.755 106.922 214.755 106.861C214.755 106.799 215.774 106.754 217.033 106.754C218.292 106.754 219.31 106.799 219.31 106.861Z" fill="#263238"/>
<path d="M224.71 106.861C224.71 106.916 223.691 106.967 222.432 106.967C221.173 106.967 220.155 106.922 220.155 106.861C220.155 106.799 221.173 106.754 222.432 106.754C223.691 106.754 224.71 106.799 224.71 106.861Z" fill="#263238"/>
<path d="M230.109 106.861C230.109 106.916 229.09 106.967 227.831 106.967C226.572 106.967 225.554 106.922 225.554 106.861C225.554 106.799 226.572 106.754 227.831 106.754C229.09 106.754 230.109 106.799 230.109 106.861Z" fill="#263238"/>
<path d="M235.503 106.861C235.503 106.916 234.484 106.967 233.225 106.967C231.966 106.967 230.948 106.922 230.948 106.861C230.948 106.799 231.966 106.754 233.225 106.754C234.484 106.754 235.503 106.799 235.503 106.861Z" fill="#263238"/>
<path d="M240.902 106.861C240.902 106.916 239.884 106.967 238.625 106.967C237.366 106.967 236.348 106.922 236.348 106.861C236.348 106.799 237.366 106.754 238.625 106.754C239.884 106.754 240.902 106.799 240.902 106.861Z" fill="#263238"/>
<path d="M246.296 106.861C246.296 106.916 245.278 106.967 244.019 106.967C242.76 106.967 241.742 106.922 241.742 106.861C241.742 106.799 242.76 106.754 244.019 106.754C245.278 106.754 246.296 106.799 246.296 106.861Z" fill="#263238"/>
<g opacity="0.3">
<path d="M200.655 83.5276H198.086V102.485H200.655V83.5276Z" fill="white"/>
</g>
<g opacity="0.3">
<path d="M210.581 74.8828H208.012V102.485H210.581V74.8828Z" fill="white"/>
</g>
<g opacity="0.3">
<path d="M220.507 87.713H217.939V102.485H220.507V87.713Z" fill="white"/>
</g>
<g opacity="0.3">
<path d="M230.434 81.3678H227.865V102.485H230.434V81.3678Z" fill="white"/>
</g>
<g opacity="0.3">
<path d="M240.36 85.57H237.791V102.485H240.36V85.57Z" fill="white"/>
</g>
<path d="M124.92 40.913C124.92 42.2783 123.812 43.3862 122.447 43.3862C121.082 43.3862 119.974 42.2783 119.974 40.913C119.974 39.5477 121.082 38.4398 122.447 38.4398C123.812 38.4398 124.92 39.5477 124.92 40.913Z" fill="#3069B1"/>
<path d="M167.463 38.9602C167.463 39.0385 159.12 39.1057 148.83 39.1057C138.54 39.1057 130.197 39.0385 130.197 38.9602C130.197 38.8818 138.54 38.8147 148.83 38.8147C159.12 38.8147 167.463 38.8818 167.463 38.9602Z" fill="#3069B1"/>
<path d="M145.159 41.9537C145.159 41.9537 144.952 41.9929 144.583 42.0097C144.214 42.0264 143.671 42.0432 143.011 42.0544C141.679 42.0824 139.844 42.0992 137.818 42.0992C135.793 42.0992 133.952 42.0824 132.626 42.0544C131.96 42.0432 131.423 42.0264 131.053 42.0097C130.684 41.9929 130.477 41.9705 130.477 41.9537C130.477 41.9369 130.684 41.9145 131.053 41.8978C131.423 41.881 131.965 41.8642 132.626 41.853C133.957 41.825 135.793 41.8082 137.818 41.8082C139.844 41.8082 141.685 41.825 143.011 41.853C143.676 41.8642 144.214 41.881 144.583 41.8978C144.952 41.9145 145.159 41.9369 145.159 41.9537Z" fill="#3069B1"/>
<path d="M103.703 31.3505H25.4175V120.698H103.703V31.3505Z" fill="#FAFAFA"/>
<path d="M103.703 120.698C103.703 120.698 103.703 120.553 103.697 120.273C103.697 119.987 103.697 119.573 103.692 119.031C103.692 117.934 103.681 116.317 103.675 114.207C103.669 109.988 103.658 103.817 103.641 95.9775C103.625 80.3103 103.602 57.9902 103.574 31.3504L103.703 31.4791C80.6499 31.4791 53.8646 31.4903 25.4231 31.4959H25.4175L25.563 31.3504C25.5574 64.2907 25.5462 95.0095 25.5406 120.698L25.4175 120.575C48.9686 120.603 68.5246 120.625 82.1998 120.636C89.043 120.648 94.409 120.659 98.074 120.67C99.9037 120.676 101.308 120.681 102.259 120.687C103.205 120.687 103.703 120.698 103.703 120.698C103.703 120.698 103.227 120.709 102.287 120.709C101.342 120.709 99.9485 120.715 98.1244 120.726C94.465 120.732 89.1046 120.743 82.2781 120.76C68.5862 120.776 49.0022 120.799 25.4175 120.821H25.2944V120.698C25.2888 95.0095 25.2776 64.2907 25.272 31.3504V31.205H25.4175H25.4231C53.8646 31.2106 80.6499 31.2161 103.703 31.2217H103.832V31.3504C103.804 58.0294 103.781 80.3775 103.765 96.0614C103.748 103.889 103.737 110.05 103.731 114.263C103.725 116.362 103.72 117.967 103.714 119.059C103.714 119.596 103.709 120.004 103.709 120.284C103.709 120.558 103.703 120.692 103.703 120.692V120.698Z" fill="#263238"/>
<path d="M96.9718 76.9755C96.9438 77.0314 96.1045 76.539 94.4539 76.0187C92.8144 75.5095 90.2909 75.0227 87.2358 75.4815C85.7194 75.7221 84.08 76.1809 82.4741 77.0091C80.857 77.8204 79.3182 79.0178 77.7907 80.3775C76.2576 81.7316 74.73 83.2703 72.973 84.6916C71.2161 86.0904 69.1961 87.4165 66.8237 88.0208C65.6486 88.323 64.4121 88.4013 63.2314 88.2391C62.0508 88.0768 60.9373 87.6907 59.9077 87.2095C57.8486 86.2359 56.0805 84.9601 54.3347 83.897C52.6001 82.8115 50.86 81.9498 49.0918 81.5469C47.3404 81.1217 45.6394 81.0322 44.1063 81.1665C41.0232 81.435 38.6955 82.5261 37.2239 83.4046C35.7467 84.3055 35.0529 84.9881 35.0137 84.9378C35.0025 84.9266 35.1704 84.7531 35.5117 84.4454C35.8475 84.132 36.379 83.7068 37.112 83.2256C38.5668 82.2799 40.9169 81.1105 44.0671 80.786C45.6338 80.6293 47.3796 80.6908 49.1925 81.1161C51.011 81.5078 52.8351 82.3918 54.5865 83.4774C56.3547 84.5405 58.1228 85.8051 60.1204 86.7339C62.1012 87.6907 64.4288 88.1104 66.6838 87.5005C68.9388 86.9297 70.9083 85.6484 72.6373 84.2831C74.3663 82.8954 75.8995 81.3623 77.455 80.0082C79.0049 78.6485 80.5884 77.4343 82.2614 76.6174C83.9233 75.7837 85.6131 75.3304 87.1686 75.1066C90.3021 74.6814 92.8704 75.2409 94.5098 75.8172C95.3379 76.1026 95.9534 76.3992 96.3563 76.6118C96.7592 76.83 96.9662 76.9531 96.9606 76.9699L96.9718 76.9755Z" fill="#3069B1"/>
<path d="M53.6184 88.972H46.9655V106.973H53.6184V88.972Z" fill="#3069B1"/>
<path d="M81.8582 88.972H75.2053V106.973H81.8582V88.972Z" fill="#3069B1"/>
<path d="M91.2754 78.4023H84.6224V106.972H91.2754V78.4023Z" fill="#3069B1"/>
<path d="M45.0069 101.31H38.354V107.37H45.0069V101.31Z" fill="#3069B1"/>
<path d="M63.0353 97.1022H56.3768V106.972H63.0353V97.1022Z" fill="#3069B1"/>
<path d="M72.4469 94.836H65.7939V106.972H72.4469V94.836Z" fill="#3069B1"/>
<path d="M53.8866 109.099C53.8866 109.244 52.2751 109.367 50.2887 109.367C48.3023 109.367 46.6909 109.25 46.6909 109.099C46.6909 108.948 48.3023 108.83 50.2887 108.83C52.2751 108.83 53.8866 108.948 53.8866 109.099Z" fill="#263238"/>
<path d="M45.6056 109.099C45.6056 109.244 43.9941 109.367 42.0077 109.367C40.0214 109.367 38.4099 109.25 38.4099 109.099C38.4099 108.948 40.0214 108.83 42.0077 108.83C43.9941 108.83 45.6056 108.948 45.6056 109.099Z" fill="#263238"/>
<path d="M92.5902 109.099C92.5902 109.244 90.7717 109.367 88.5279 109.367C86.2842 109.367 84.4657 109.25 84.4657 109.099C84.4657 108.948 86.2842 108.83 88.5279 108.83C90.7717 108.83 92.5902 108.948 92.5902 109.099Z" fill="#263238"/>
<path d="M78.6354 109.367C80.8789 109.367 82.6976 109.247 82.6976 109.099C82.6976 108.95 80.8789 108.83 78.6354 108.83C76.3918 108.83 74.5731 108.95 74.5731 109.099C74.5731 109.247 76.3918 109.367 78.6354 109.367Z" fill="#263238"/>
<path d="M72.4471 109.099C72.4471 109.244 70.8356 109.367 68.8493 109.367C66.8629 109.367 65.2514 109.25 65.2514 109.099C65.2514 108.948 66.8629 108.83 68.8493 108.83C70.8356 108.83 72.4471 108.948 72.4471 109.099Z" fill="#263238"/>
<path d="M62.7221 109.099C62.7221 109.244 61.1106 109.367 59.1242 109.367C57.1379 109.367 55.5264 109.25 55.5264 109.099C55.5264 108.948 57.1379 108.83 59.1242 108.83C61.1106 108.83 62.7221 108.948 62.7221 109.099Z" fill="#263238"/>
<path d="M92.5906 44.3766H38.1975V66.9653H92.5906V44.3766Z" fill="#E0E0E0"/>
<path d="M49.4944 51.5164C49.4944 52.9152 48.3585 54.0511 46.9597 54.0511C45.5608 54.0511 44.425 52.9152 44.425 51.5164C44.425 50.1175 45.5608 48.9816 46.9597 48.9816C48.3585 48.9816 49.4944 50.1175 49.4944 51.5164Z" fill="#263238"/>
<path d="M69.6994 49.765H52.0291V50.7442H69.6994V49.765Z" fill="#263238"/>
<path d="M86.4017 51.9976H52.0291V52.9768H86.4017V51.9976Z" fill="white"/>
<path d="M49.4944 59.3108C49.4944 60.7096 48.3585 61.8455 46.9597 61.8455C45.5608 61.8455 44.425 60.7096 44.425 59.3108C44.425 57.9119 45.5608 56.7761 46.9597 56.7761C48.3585 56.7761 49.4944 57.9119 49.4944 59.3108Z" fill="#3069B1"/>
<path d="M61.0489 57.5594H52.0291V58.5386H61.0489V57.5594Z" fill="#3069B1"/>
<path d="M86.4017 59.792H52.0291V60.7712H86.4017V59.792Z" fill="white"/>
<path d="M349.638 15.314H263.67V113.43H349.638V15.314Z" fill="#FAFAFA"/>
<path d="M349.638 113.43C349.638 113.43 349.638 113.273 349.633 112.965C349.633 112.657 349.633 112.199 349.627 111.6C349.627 110.397 349.616 108.618 349.61 106.307C349.605 101.674 349.593 94.8976 349.577 86.2918C349.56 69.0915 349.537 44.578 349.509 15.3196L349.638 15.4482C324.324 15.4482 294.909 15.4594 263.681 15.465H263.67L263.816 15.3196C263.81 51.4939 263.799 85.2231 263.793 113.435L263.67 113.312C289.538 113.34 311.013 113.362 326.025 113.374C333.54 113.385 339.438 113.396 343.455 113.407C345.464 113.413 347.008 113.418 348.049 113.424C349.09 113.424 349.633 113.435 349.633 113.435C349.633 113.435 349.107 113.446 348.077 113.446C347.042 113.446 345.509 113.452 343.506 113.463C339.488 113.469 333.602 113.48 326.098 113.497C311.063 113.514 289.56 113.536 263.665 113.558H263.541V113.435C263.536 85.2287 263.525 51.4939 263.519 15.3196V15.1741H263.676C294.904 15.1797 324.319 15.1853 349.633 15.1909H349.761V15.3196C349.733 44.6116 349.711 69.1531 349.694 86.3758C349.677 94.9703 349.666 101.741 349.661 106.363C349.655 108.668 349.649 110.436 349.644 111.633C349.644 112.227 349.638 112.674 349.638 112.982C349.638 113.284 349.633 113.435 349.633 113.435L349.638 113.43Z" fill="#263238"/>
<path d="M340.187 23.1588H270.547V79.029H340.187V23.1588Z" fill="#E0E0E0"/>
<path d="M277.698 69.0916H275.415V69.7518H277.698V69.0916Z" fill="#263238"/>
<path d="M283.506 72.6166H280.585V73.2769H283.506V72.6166Z" fill="#263238"/>
<path d="M293.684 72.6166H290.764V73.2769H293.684V72.6166Z" fill="#263238"/>
<path d="M303.857 72.6166H300.936V73.2769H303.857V72.6166Z" fill="#263238"/>
<path d="M314.035 72.6166H311.114V73.2769H314.035V72.6166Z" fill="#263238"/>
<path d="M324.207 72.6166H321.286V73.2769H324.207V72.6166Z" fill="#263238"/>
<path d="M334.385 72.6166H331.465V73.2769H334.385V72.6166Z" fill="#263238"/>
<path d="M277.698 60.2956H275.415V60.9559H277.698V60.2956Z" fill="#263238"/>
<path d="M277.698 43.7387H275.415V44.399H277.698V43.7387Z" fill="#263238"/>
<path d="M277.698 35.4183H275.415V36.0786H277.698V35.4183Z" fill="#263238"/>
<path d="M277.816 52.02H275.533V52.6802H277.816V52.02Z" fill="#263238"/>
<path d="M334.302 69.7518C334.302 69.7518 334.218 69.763 334.055 69.7686C333.882 69.7686 333.641 69.7742 333.334 69.7854C332.685 69.791 331.756 69.8022 330.569 69.8134C328.152 69.8246 324.683 69.8413 320.397 69.8581C311.797 69.8693 299.94 69.8861 286.841 69.9029C284.116 69.9029 281.447 69.9029 278.89 69.9029H278.745V69.7574C278.767 58.5386 278.784 48.6683 278.795 41.5845C278.812 38.0594 278.829 35.2281 278.84 33.2641C278.851 32.3017 278.857 31.5519 278.862 31.0259C278.862 30.7797 278.873 30.5895 278.873 30.444C278.873 30.3153 278.885 30.2482 278.885 30.2482C278.885 30.2482 278.896 30.3153 278.896 30.444C278.896 30.5895 278.901 30.7797 278.907 31.0259C278.913 31.5519 278.924 32.3017 278.929 33.2641C278.941 35.2281 278.952 38.0594 278.974 41.5845C278.985 48.6683 279.002 58.5386 279.024 69.7574L278.879 69.6119C281.436 69.6119 284.105 69.6119 286.83 69.6119C299.929 69.6287 311.786 69.6455 320.386 69.6567C324.672 69.6735 328.141 69.6903 330.558 69.7015C331.75 69.7127 332.679 69.7238 333.322 69.7294C333.63 69.735 333.865 69.7406 334.044 69.7462C334.206 69.7462 334.29 69.7574 334.29 69.763L334.302 69.7518Z" fill="#263238"/>
<path d="M334.951 52.3501C334.951 52.4284 322.898 52.4956 308.031 52.4956C293.164 52.4956 281.106 52.4284 281.106 52.3501C281.106 52.2717 293.158 52.2046 308.031 52.2046C322.904 52.2046 334.951 52.2717 334.951 52.3501Z" fill="#263238"/>
<path d="M334.951 44.0689C334.951 44.1472 322.898 44.2144 308.031 44.2144C293.164 44.2144 281.106 44.1472 281.106 44.0689C281.106 43.9905 293.158 43.9234 308.031 43.9234C322.904 43.9234 334.951 43.9905 334.951 44.0689Z" fill="#263238"/>
<path d="M334.951 35.7484C334.951 35.8268 322.898 35.8939 308.031 35.8939C293.164 35.8939 281.106 35.8268 281.106 35.7484C281.106 35.6701 293.158 35.603 308.031 35.603C322.904 35.603 334.951 35.6701 334.951 35.7484Z" fill="#263238"/>
<path d="M334.951 60.6257C334.951 60.704 322.898 60.7712 308.031 60.7712C293.164 60.7712 281.106 60.704 281.106 60.6257C281.106 60.5474 293.158 60.4802 308.031 60.4802C322.904 60.4802 334.951 60.5474 334.951 60.6257Z" fill="#263238"/>
<path d="M281.66 67.9725V60.6257L286.237 53.5195L289.342 55.9032L295.721 45.9993L299.481 48.6459L304.713 39.5086L308.966 42.9722L315.344 30.8525L322.21 44.399L327.766 37.6229L334.307 35.7541V67.9781H281.66V67.9725Z" fill="#90C4E9"/>
<path d="M334.95 33.141C334.95 33.141 334.911 33.1466 334.833 33.1522C334.743 33.1522 334.631 33.1578 334.492 33.1634C334.173 33.1634 333.731 33.1746 333.165 33.1857C331.985 33.1969 330.289 33.2081 328.146 33.2249L328.208 33.1913C326.748 35.105 324.929 37.4886 322.836 40.2248L322.803 40.2695H322.747C318.836 40.2751 314.259 40.2863 309.284 40.2919L309.402 40.2248C307.628 43.1736 305.72 46.3574 303.745 49.6475C301.814 52.8536 299.951 55.9535 298.189 58.8855L298.077 59.0645L297.953 58.8911C295.296 55.2317 292.839 51.8521 290.663 48.8585H290.859C288.089 53.1614 285.8 56.7145 284.194 59.21C283.4 60.4354 282.768 61.3978 282.331 62.0693C282.118 62.3882 281.956 62.6344 281.833 62.8135C281.721 62.9813 281.654 63.0597 281.654 63.0597C281.654 63.0597 281.699 62.9646 281.805 62.7911C281.917 62.6064 282.074 62.3491 282.27 62.0245C282.695 61.3419 283.305 60.3683 284.077 59.1261C285.66 56.6194 287.921 53.0439 290.657 48.713L290.752 48.5675L290.853 48.7074C293.035 51.6898 295.508 55.0638 298.177 58.712L297.942 58.7232C299.705 55.7912 301.568 52.6858 303.493 49.4796C305.474 46.1895 307.387 43.0113 309.161 40.0625L309.2 39.9954H309.279C314.253 40.0066 318.83 40.0122 322.741 40.0177L322.652 40.0625C324.761 37.3431 326.596 34.9763 328.074 33.0682L328.096 33.0347H328.135C330.278 33.0515 331.974 33.0626 333.154 33.0738C333.719 33.085 334.161 33.0906 334.48 33.0962C334.62 33.0962 334.732 33.1018 334.822 33.1074C334.9 33.1074 334.939 33.113 334.939 33.1186L334.95 33.141Z" fill="#3069B1"/>
<path d="M292.968 51.1527C292.968 51.4268 292.739 51.6506 292.453 51.6506C292.168 51.6506 291.938 51.4268 291.938 51.1527C291.938 50.8785 292.168 50.6547 292.453 50.6547C292.739 50.6547 292.968 50.8785 292.968 51.1527Z" fill="#3069B1"/>
<path d="M308.501 42.3231C308.501 42.5972 308.272 42.8211 307.986 42.8211C307.701 42.8211 307.472 42.5972 307.472 42.3231C307.472 42.0489 307.701 41.8251 307.986 41.8251C308.272 41.8251 308.501 42.0489 308.501 42.3231Z" fill="#3069B1"/>
<path d="M320.57 40.1577C320.57 40.4318 320.341 40.6557 320.055 40.6557C319.77 40.6557 319.541 40.4318 319.541 40.1577C319.541 39.8835 319.77 39.6597 320.055 39.6597C320.341 39.6597 320.57 39.8835 320.57 40.1577Z" fill="#3069B1"/>
<path d="M337.054 87.3326C337.054 87.4109 322.36 87.478 304.237 87.478C286.113 87.478 271.414 87.4109 271.414 87.3326C271.414 87.2542 286.107 87.1871 304.237 87.1871C322.366 87.1871 337.054 87.2542 337.054 87.3326Z" fill="#263238"/>
<path d="M337.054 90.8801C337.054 90.9584 322.36 91.0256 304.237 91.0256C286.113 91.0256 271.414 90.9584 271.414 90.8801C271.414 90.8018 286.107 90.7346 304.237 90.7346C322.366 90.7346 337.054 90.8018 337.054 90.8801Z" fill="#263238"/>
<path d="M337.054 94.4276C337.054 94.5059 322.36 94.5731 304.237 94.5731C286.113 94.5731 271.414 94.5059 271.414 94.4276C271.414 94.3492 286.107 94.2821 304.237 94.2821C322.366 94.2821 337.054 94.3492 337.054 94.4276Z" fill="#263238"/>
<path d="M337.054 97.9806C337.054 98.059 322.36 98.1261 304.237 98.1261C286.113 98.1261 271.414 98.059 271.414 97.9806C271.414 97.9023 286.107 97.8351 304.237 97.8351C322.366 97.8351 337.054 97.9023 337.054 97.9806Z" fill="#263238"/>
<path d="M311.13 96.5876C312.926 93.5717 313.452 89.5541 313.911 86.0738C314.129 84.4343 314.51 82.1066 313.363 81.0771C312.132 79.9748 312.02 78.285 310.604 77.4345C309.189 76.584 307.264 76.5056 305.926 77.4736" fill="#263238"/>
<path d="M306.15 107.269C303.408 107.482 301.042 105.372 300.935 102.625C300.835 99.9896 300.745 97.3206 300.745 97.3206C300.745 97.3206 296.75 96.9457 296.459 92.9897C296.168 89.0338 296.302 79.902 296.302 79.902C300.767 77.6527 306.094 77.994 310.235 80.7973L309.989 94.7187V102.211C309.961 104.723 308.657 107.079 306.15 107.269Z" fill="#FFBE9D"/>
<path d="M300.398 88.1553C301.081 87.3104 302.189 86.9746 303.101 87.5678C304.013 88.1609 304.366 89.4758 303.868 90.4438C303.515 91.1264 302.721 91.7419 301.926 91.9098C301.182 92.0665 300.65 92.7883 300.734 93.5437C300.846 94.534 302.502 94.9089 303.247 95.7315C304.405 97.0072 306.951 97.55 308.663 97.7514C310.347 97.9528 310.146 97.9696 311.125 96.582C311.836 95.5748 312.059 94.6068 312.087 93.3702C312.149 90.455 312.21 87.5342 312.266 84.619C312.289 83.567 312.311 82.5039 312.065 81.4799C311.819 80.456 311.287 79.46 310.409 78.8837C309.446 78.2514 308.227 78.1954 307.13 77.8429C305.759 77.4009 304.595 76.4888 303.314 75.8342C302.032 75.1795 300.46 74.7878 299.173 75.4313C298.25 75.8957 297.629 76.819 296.734 77.3281C295.452 78.0555 293.712 77.8877 293.091 79.7733C292.878 80.4224 292.895 81.1386 293.113 81.7821C293.981 84.3392 297.148 85.3743 299.431 84.2665C299.475 84.6973 299.05 85.6653 299.503 87.0362C299.649 87.4726 299.699 88.1385 300.387 88.1553" fill="#263238"/>
<path d="M301.109 90.6284C301.137 90.6061 301.277 90.8355 301.601 90.8187C301.915 90.8019 302.329 90.427 302.34 89.9178C302.379 89.3974 301.982 89.0393 301.663 88.933C301.338 88.8099 301.103 88.8771 301.092 88.8267C301.075 88.7987 301.31 88.6477 301.719 88.7316C301.915 88.7764 302.15 88.8827 302.34 89.0897C302.53 89.2911 302.653 89.6101 302.631 89.929C302.614 90.5893 302.049 91.0649 301.601 91.0257C301.378 91.0145 301.226 90.897 301.159 90.8019C301.087 90.7068 301.092 90.634 301.103 90.6284H301.109Z" fill="#EB996E"/>
<path d="M305.227 78.699C305.227 78.699 305.311 78.548 305.557 78.3633C305.798 78.1787 306.212 77.9772 306.76 77.8989C307.303 77.8206 307.985 77.8821 308.651 78.1843C309.323 78.492 309.933 79.0515 310.397 79.7454C311.326 81.161 311.499 82.7053 311.628 83.7517C311.734 84.8148 311.768 85.4751 311.734 85.4807C311.69 85.4863 311.583 84.8316 311.427 83.7797C311.253 82.7445 311.041 81.2449 310.162 79.9076C309.726 79.2474 309.155 78.7214 308.545 78.4305C307.935 78.1339 307.303 78.0556 306.788 78.1059C305.736 78.201 305.261 78.7606 305.233 78.7046L305.227 78.699Z" fill="#455A64"/>
<path d="M294.087 82.7445C294.087 82.7445 294.031 82.7557 293.936 82.7333C293.841 82.711 293.701 82.6662 293.544 82.5543C293.387 82.448 293.214 82.2801 293.085 82.0395C292.956 81.7989 292.878 81.4688 292.962 81.1219C293.035 80.7805 293.253 80.428 293.606 80.1986C293.964 79.9524 294.434 79.9468 294.859 79.9524C295.29 79.9636 295.709 79.93 296.051 79.6503C296.403 79.3873 296.672 78.9844 297.019 78.6095C297.718 77.8541 298.625 77.3897 299.481 77.1883C300.342 76.9757 301.154 76.998 301.803 77.1379C302.452 77.2722 302.95 77.5016 303.263 77.6975C303.577 77.8933 303.728 78.0332 303.716 78.0444C303.688 78.1059 303.039 77.552 301.769 77.3394C301.143 77.233 300.365 77.233 299.553 77.4513C298.742 77.6583 297.892 78.1003 297.237 78.8109C296.907 79.1579 296.633 79.5831 296.224 79.8853C296.023 80.0364 295.788 80.1483 295.542 80.193C295.301 80.2378 295.072 80.2322 294.853 80.2266C294.422 80.2098 294.031 80.2154 293.734 80.4056C293.438 80.5903 293.242 80.8813 293.163 81.1722C293.007 81.7709 293.354 82.2577 293.617 82.4648C293.891 82.6886 294.104 82.7165 294.092 82.7445H294.087Z" fill="#455A64"/>
<path d="M304.668 93.7507C304.668 93.7507 304.869 93.65 305.188 93.4373C305.507 93.2247 305.949 92.8442 306.268 92.2343C306.587 91.6356 306.732 90.7739 306.447 89.9178C306.313 89.4926 306.072 89.0729 305.731 88.7316C305.389 88.3847 304.959 88.0937 304.494 87.8251C304.03 87.5566 303.56 87.3048 303.134 87.0138C302.704 86.7228 302.329 86.3647 302.038 85.9843C301.461 85.2121 301.187 84.356 301.115 83.6454C301.025 82.9236 301.137 82.336 301.243 81.9556C301.299 81.7597 301.355 81.6198 301.4 81.5247C301.445 81.4296 301.473 81.3792 301.478 81.3848C301.545 81.396 301.12 82.2297 301.316 83.623C301.411 84.3056 301.696 85.1058 302.25 85.8276C302.53 86.1857 302.877 86.5102 303.291 86.7844C303.705 87.0642 304.17 87.3048 304.64 87.579C305.11 87.8531 305.563 88.1553 305.932 88.5358C306.301 88.9163 306.564 89.3807 306.704 89.8451C306.995 90.7851 306.816 91.714 306.447 92.3406C306.083 92.9785 305.596 93.3478 305.244 93.5437C304.891 93.7395 304.668 93.7731 304.662 93.7619L304.668 93.7507Z" fill="#455A64"/>
<path d="M311.528 87.9482C311.528 87.9482 311.349 88.0098 311.019 88.0601C310.689 88.1049 310.196 88.1441 309.597 88.1049C308.4 88.0489 306.716 87.6349 305.183 86.5885C303.655 85.5534 302.598 84.1377 302.29 82.9459C302.128 82.3528 302.156 81.8436 302.228 81.5135C302.307 81.1834 302.413 81.0211 302.424 81.0267C302.486 81.0267 302.122 81.7597 302.486 82.89C302.827 84.0035 303.868 85.3463 305.345 86.3479C306.828 87.3607 308.445 87.7915 309.609 87.9035C310.784 88.0321 311.517 87.8923 311.522 87.9538L311.528 87.9482Z" fill="#455A64"/>
<path d="M312.16 85.2401C313.531 83.6958 315.551 82.655 317.616 82.7725C319.675 82.89 321.689 84.3113 322.193 86.3144C322.573 87.8196 322.109 89.3919 321.913 90.9362C321.717 92.4806 321.907 94.2823 323.166 95.1943C323.922 95.7427 324.906 95.8434 325.813 96.0672C326.719 96.291 327.698 96.7443 328.006 97.6284C328.364 98.6411 327.631 99.7938 326.647 100.219C325.662 100.644 324.526 100.516 323.48 100.264C323.955 101.4 323.368 102.815 322.305 103.436C321.241 104.057 319.843 103.934 318.791 103.291C317.739 102.647 317.022 101.556 316.642 100.381C315.965 101.573 314.186 101.825 313.044 101.064C311.903 100.309 311.41 98.8034 311.589 97.4493C311.768 96.0896 312.513 94.8642 313.413 93.8347C313.867 93.3143 314.365 92.8219 314.689 92.212C315.008 91.6021 315.12 90.8299 314.767 90.2368C314.415 89.6437 313.497 89.3975 313.005 89.8843" fill="#263238"/>
<path d="M314.538 89.3863C314.538 89.3863 314.079 89.6436 313.346 89.3751C312.63 89.1345 311.791 88.2896 311.623 87.1257C311.533 86.5494 311.612 85.9842 311.813 85.5198C312.009 85.0554 312.294 84.6973 312.568 84.4455C313.128 83.9363 313.604 83.8412 313.609 83.8636C313.632 83.9083 313.201 84.0762 312.714 84.591C312.227 85.0834 311.729 86.0178 311.914 87.0809C312.076 88.1385 312.798 88.9162 313.43 89.1904C314.074 89.487 314.538 89.3415 314.538 89.3918V89.3863Z" fill="#3069B1"/>
<path d="M300.611 97.2534C300.611 97.287 300.258 97.3038 299.71 97.1639C299.162 97.0296 298.434 96.6939 297.78 96.1175C297.131 95.5412 296.705 94.8586 296.504 94.3326C296.297 93.8066 296.269 93.4541 296.302 93.4485C296.347 93.4373 296.448 93.7675 296.689 94.2487C296.929 94.7299 297.354 95.3566 297.97 95.8993C298.585 96.4421 299.257 96.7834 299.766 96.9624C300.275 97.1471 300.611 97.203 300.605 97.2478L300.611 97.2534Z" fill="#EB996E"/>
<path d="M315.842 100.493C315.842 100.493 315.774 100.493 315.646 100.465C315.523 100.432 315.344 100.364 315.131 100.236C314.717 99.9728 314.219 99.3909 314.006 98.5292C313.906 98.0983 313.861 97.6059 313.956 97.0912C314.04 96.5764 314.23 96.056 314.476 95.5356C314.974 94.4949 315.763 93.5045 316.345 92.3518C316.636 91.7755 316.849 91.1824 316.933 90.5893C317.011 89.9962 316.944 89.4142 316.742 88.9051C316.345 87.8755 315.517 87.1873 314.734 86.9187C313.939 86.6389 313.234 86.7005 312.775 86.7956C312.311 86.8907 312.076 87.025 312.065 86.997C312.065 86.9858 312.115 86.9523 312.227 86.8907C312.339 86.8348 312.512 86.7508 312.747 86.6893C313.212 86.555 313.95 86.4599 314.801 86.7284C315.646 86.9858 316.552 87.7076 316.994 88.8099C317.218 89.3527 317.302 89.9906 317.218 90.6285C317.14 91.2663 316.91 91.8874 316.608 92.4805C316.004 93.6724 315.215 94.6516 314.723 95.6531C314.213 96.6491 314.012 97.6619 314.208 98.4844C314.381 99.3069 314.823 99.8721 315.198 100.146C315.579 100.42 315.853 100.465 315.842 100.499V100.493Z" fill="#455A64"/>
<path d="M321.812 103.386C321.812 103.386 321.728 103.403 321.56 103.403C321.398 103.397 321.152 103.369 320.855 103.274C320.256 103.101 319.434 102.603 318.796 101.668C318.141 100.739 317.828 99.3685 317.906 97.8969C317.957 96.4197 318.393 94.853 318.667 93.2136C318.802 92.391 318.88 91.5797 318.835 90.8019C318.79 90.0242 318.623 89.2856 318.326 88.6421C318.035 87.9986 317.621 87.4447 317.123 87.0642C316.631 86.6725 316.071 86.4487 315.551 86.32C314.493 86.0738 313.592 86.2081 313.005 86.3312C312.406 86.4655 312.093 86.5942 312.081 86.5718C312.081 86.5606 312.154 86.5214 312.3 86.4543C312.451 86.3872 312.675 86.3032 312.971 86.2193C313.564 86.0626 314.482 85.8892 315.59 86.1186C316.138 86.2417 316.731 86.4599 317.263 86.8684C317.8 87.2656 318.253 87.8476 318.567 88.5246C318.88 89.2016 319.059 89.9738 319.115 90.7796C319.165 91.5853 319.087 92.419 318.953 93.2527C318.673 94.9202 318.236 96.4645 318.169 97.9025C318.08 99.335 318.36 100.65 318.964 101.545C319.551 102.457 320.324 102.955 320.889 103.157C321.459 103.369 321.812 103.341 321.806 103.375L321.812 103.386Z" fill="#455A64"/>
<path d="M323.004 121.403L314.577 127.978L318.114 133.78L328.258 126.305L323.004 121.403Z" fill="#FFBE9D"/>
<path d="M300.466 99.3237C300.466 99.3237 300.505 98.6187 298.67 98.518C296.834 98.4173 296.627 98.4508 296.627 98.4508C296.627 98.4508 295.799 97.3933 295.749 96.7498C295.698 96.1064 296.14 95.0208 296.14 95.0208L297.998 94.8474L297.495 93.5828L296.185 93.6724L292.487 94.1144L291.015 100.594L280.915 119.45C279.27 121.907 280.182 125.253 282.846 126.54C285.459 127.804 288.956 125.124 289.924 122.388L295.514 101.411L297.478 99.8721L300.298 99.3573" fill="#FFBE9D"/>
<path d="M277.435 224.835L291.189 145.71H291.172C291.2 145.587 291.228 145.475 291.256 145.363V145.346C293.595 136.063 297.204 133.092 297.204 133.092L318.254 134.413C320.044 137.63 320.268 145.346 320.268 145.346C320.514 146.292 315.82 222.966 315.82 222.966L308.781 222.77L304.965 150.231L284.48 225.137L277.43 224.835H277.435Z" fill="#FFBE9D"/>
<path d="M277.273 225.545L277.301 224.829L284.542 225.036L284.48 227.392L284.033 227.408C282.041 227.459 273.899 227.526 272.579 227.117C271.107 226.659 277.273 225.539 277.273 225.539V225.545Z" fill="#3069B1"/>
<g opacity="0.6">
<path d="M281.868 227.274C281.985 226.715 282.338 226.205 282.83 225.87C283.322 225.534 283.921 225.366 284.531 225.428L284.475 227.302L281.868 227.274Z" fill="white"/>
</g>
<g opacity="0.6">
<path d="M274.257 226.189C274.257 226.189 272.092 226.709 272.349 227.045C272.607 227.38 280.837 227.599 284.475 227.397V227.246L274.867 227.067C274.867 227.067 274.677 226.217 274.257 226.189Z" fill="white"/>
</g>
<path d="M284.586 227.246C284.586 227.246 284.542 227.252 284.463 227.257C284.357 227.257 284.24 227.263 284.105 227.268C283.747 227.268 283.311 227.28 282.796 227.285C281.688 227.291 280.16 227.285 278.471 227.24C276.781 227.196 275.253 227.129 274.145 227.061C273.631 227.028 273.194 227 272.836 226.978C272.702 226.966 272.59 226.955 272.478 226.95C272.394 226.944 272.355 226.938 272.355 226.933C272.355 226.933 272.4 226.933 272.478 226.933C272.584 226.933 272.702 226.944 272.836 226.944C273.194 226.961 273.631 226.978 274.145 227.005C275.253 227.056 276.781 227.117 278.471 227.162C280.16 227.207 281.688 227.224 282.796 227.229C283.311 227.229 283.753 227.235 284.105 227.235C284.24 227.235 284.357 227.235 284.463 227.235C284.547 227.235 284.586 227.235 284.586 227.24V227.246Z" fill="#263238"/>
<path d="M274.867 227.173C274.867 227.173 274.828 226.882 274.638 226.586C274.453 226.284 274.19 226.127 274.207 226.11C274.212 226.088 274.52 226.222 274.716 226.547C274.917 226.866 274.889 227.179 274.867 227.173Z" fill="#263238"/>
<path d="M277.027 226.228C277.027 226.228 276.909 226.121 276.809 225.965C276.708 225.808 276.641 225.674 276.663 225.663C276.686 225.651 276.781 225.769 276.881 225.926C276.982 226.082 277.049 226.217 277.027 226.228Z" fill="#263238"/>
<path d="M277.614 225.954C277.614 225.954 277.486 225.898 277.363 225.791C277.24 225.685 277.156 225.584 277.172 225.567C277.189 225.551 277.301 225.623 277.424 225.73C277.547 225.836 277.631 225.937 277.614 225.954Z" fill="#263238"/>
<path d="M278.006 225.332C278.006 225.332 277.838 225.372 277.631 225.366C277.424 225.366 277.256 225.344 277.256 225.321C277.256 225.299 277.424 225.282 277.631 225.288C277.838 225.293 278.006 225.31 278.006 225.332Z" fill="#263238"/>
<path d="M278.146 224.89C278.146 224.89 277.967 224.986 277.721 224.991C277.475 225.002 277.284 224.946 277.29 224.924C277.29 224.902 277.486 224.924 277.715 224.907C277.95 224.896 278.135 224.862 278.14 224.885L278.146 224.89Z" fill="#263238"/>
<path d="M276.797 225.635C276.797 225.635 276.618 225.657 276.333 225.618C276.193 225.595 276.025 225.562 275.841 225.506C275.751 225.472 275.656 225.45 275.561 225.388C275.516 225.36 275.466 225.316 275.449 225.254C275.432 225.187 275.471 225.12 275.522 225.086C275.969 224.885 276.406 225.125 276.562 225.344C276.652 225.456 276.686 225.562 276.702 225.635C276.719 225.707 276.714 225.752 276.714 225.752C276.697 225.752 276.686 225.584 276.512 225.377C276.428 225.277 276.294 225.181 276.126 225.125C275.964 225.075 275.729 225.058 275.572 225.148C275.499 225.198 275.522 225.277 275.606 225.327C275.678 225.377 275.779 225.405 275.863 225.439C276.037 225.5 276.199 225.539 276.339 225.567C276.613 225.618 276.792 225.623 276.792 225.64L276.797 225.635Z" fill="#263238"/>
<path d="M276.675 225.657C276.675 225.657 276.602 225.551 276.63 225.355C276.647 225.26 276.686 225.148 276.764 225.042C276.848 224.946 276.96 224.818 277.156 224.834C277.262 224.851 277.312 224.963 277.29 225.036C277.279 225.109 277.24 225.176 277.206 225.226C277.133 225.332 277.055 225.416 276.977 225.484C276.826 225.612 276.714 225.657 276.708 225.651C276.703 225.64 276.803 225.579 276.932 225.444C276.999 225.377 277.072 225.293 277.133 225.193C277.2 225.103 277.251 224.941 277.133 224.918C277.016 224.907 276.898 225.008 276.82 225.092C276.742 225.181 276.702 225.282 276.68 225.366C276.641 225.54 276.68 225.651 276.663 225.657H276.675Z" fill="#263238"/>
<path d="M284.491 225.405C284.491 225.405 284.284 225.383 283.96 225.405C283.635 225.428 283.182 225.54 282.784 225.819C282.387 226.099 282.147 226.474 282.029 226.754C281.912 227.039 281.895 227.229 281.878 227.229C281.878 227.229 281.872 227.179 281.878 227.095C281.889 227.011 281.912 226.882 281.968 226.737C282.074 226.44 282.314 226.049 282.729 225.758C283.143 225.467 283.618 225.361 283.954 225.349C284.122 225.344 284.256 225.349 284.351 225.372C284.441 225.388 284.491 225.4 284.491 225.405Z" fill="#263238"/>
<path d="M280.977 226.597C280.977 226.597 280.507 226.675 279.92 226.664C279.332 226.653 278.862 226.58 278.868 226.558C278.868 226.535 279.343 226.575 279.92 226.58C280.502 226.591 280.972 226.569 280.972 226.591L280.977 226.597Z" fill="#263238"/>
<path d="M282.393 226.631C282.393 226.631 282.354 226.72 282.298 226.821C282.248 226.922 282.22 227.005 282.192 227.005C282.169 227.005 282.158 226.899 282.22 226.787C282.281 226.675 282.376 226.614 282.393 226.631Z" fill="#263238"/>
<path d="M282.941 226.032C282.941 226.032 282.908 226.116 282.835 226.183C282.757 226.25 282.684 226.295 282.667 226.278C282.65 226.261 282.701 226.194 282.773 226.127C282.852 226.06 282.925 226.015 282.941 226.032Z" fill="#263238"/>
<path d="M283.714 225.769C283.714 225.769 283.613 225.786 283.507 225.819C283.4 225.847 283.322 225.903 283.305 225.886C283.288 225.875 283.35 225.78 283.484 225.741C283.619 225.702 283.725 225.747 283.719 225.769H283.714Z" fill="#263238"/>
<path d="M284.256 225.651C284.256 225.651 284.223 225.707 284.161 225.724C284.1 225.746 284.044 225.741 284.038 225.724C284.032 225.702 284.072 225.668 284.133 225.651C284.195 225.629 284.251 225.635 284.256 225.651Z" fill="#263238"/>
<path d="M312.636 101.551C312.636 101.551 315.221 101.808 318.209 103.744C324.867 108.058 335.997 117.184 335.073 121.409C334.29 125.007 325.606 129.371 325.606 129.371L319.966 122.589L323.424 120.614L314.924 114.963L312.636 101.551Z" fill="#FFC032"/>
<path d="M316.429 115.282L316.155 116.295L315.176 120.972L314.935 127.827C319.982 134.329 320.061 139.801 320.061 139.801L294.562 142.778C294.562 137.742 296.403 131.397 296.403 131.397C297.881 128.896 297.808 121.409 297.534 121.135C295.939 119.557 295.553 118.399 296.829 116.379C296.829 116.379 288.922 124.682 288.111 125.426C285.319 127.989 282.633 127.273 281.385 126.159C277.894 123.043 281.48 119.025 281.48 119.025L294.797 103.767C295.704 102.726 296.913 101.976 298.255 101.657C299.677 101.321 301.109 101.153 301.109 101.153L310 101.232C310 101.232 311.707 101.293 312.647 101.556C312.647 101.556 315.73 102.547 316.53 106.368C317.325 110.19 316.441 115.293 316.441 115.293L316.429 115.282Z" fill="#FFC032"/>
<path d="M316.709 109.172C316.709 109.172 316.748 109.435 316.765 109.91C316.776 110.386 316.765 111.074 316.714 111.925C316.614 113.626 316.323 115.964 315.836 118.516C315.668 119.389 315.494 120.223 315.31 121V120.972C315.237 122.953 315.159 124.665 315.092 125.885C315.058 126.45 315.024 126.926 315.002 127.312C314.974 127.642 314.952 127.827 314.935 127.827C314.918 127.827 314.907 127.642 314.907 127.312C314.907 126.926 314.907 126.45 314.918 125.885C314.935 124.665 314.98 122.953 315.041 120.972V120.961V120.944C315.215 120.172 315.388 119.339 315.556 118.471C316.043 115.931 316.362 113.609 316.513 111.919C316.591 111.074 316.63 110.391 316.653 109.916C316.67 109.44 316.692 109.177 316.714 109.177L316.709 109.172Z" fill="#455A64"/>
<path d="M316.793 116.026C316.838 115.959 318.925 117.324 321.448 119.07C323.972 120.816 325.986 122.287 325.936 122.354C325.891 122.422 323.804 121.056 321.28 119.311C318.757 117.565 316.748 116.093 316.793 116.026Z" fill="#455A64"/>
<path d="M300.309 106.033C300.309 106.033 300.359 106.061 300.437 106.133C300.521 106.201 300.628 106.318 300.756 106.48C301.008 106.799 301.299 107.336 301.444 108.058C301.596 108.774 301.584 109.681 301.299 110.615C300.991 111.533 300.521 112.49 299.867 113.396C299.542 113.849 299.184 114.264 298.815 114.633C298.445 115.008 298.048 115.321 297.701 115.634C296.996 116.267 296.386 116.865 295.883 117.38C295.379 117.889 294.982 118.315 294.708 118.611C294.433 118.902 294.277 119.064 294.26 119.053C294.243 119.042 294.372 118.857 294.618 118.538C294.87 118.219 295.239 117.772 295.726 117.24C296.213 116.709 296.812 116.088 297.511 115.439C297.863 115.108 298.25 114.795 298.602 114.431C298.96 114.068 299.307 113.665 299.62 113.228C300.253 112.355 300.723 111.415 301.03 110.537C301.316 109.653 301.349 108.791 301.226 108.103C300.991 106.687 300.23 106.072 300.292 106.038L300.309 106.033Z" fill="#455A64"/>
<path d="M297.343 128.577L297.634 125.147H315.024L314.929 127.827L297.343 128.577Z" fill="#455A64"/>
<path d="M282.504 118.348C282.537 118.393 282.062 118.678 281.541 119.355C281.021 120.016 280.478 121.14 280.529 122.438C280.585 123.737 281.211 124.811 281.788 125.432C282.364 126.064 282.856 126.31 282.828 126.355C282.823 126.372 282.689 126.327 282.47 126.21C282.252 126.092 281.956 125.885 281.637 125.577C280.999 124.973 280.294 123.848 280.232 122.455C280.182 121.062 280.792 119.887 281.374 119.227C281.67 118.891 281.95 118.661 282.157 118.527C282.364 118.393 282.487 118.337 282.498 118.354L282.504 118.348Z" fill="#455A64"/>
<path d="M315.831 222.96L317.801 227.548L308.977 227.448L308.792 222.77L315.831 222.96Z" fill="#3069B1"/>
<path d="M308.909 226.653C308.909 226.653 309.379 226.703 310.146 226.715C310.913 226.726 311.964 226.726 313.128 226.703C314.242 226.681 315.243 226.659 316.105 226.642C316.866 226.619 317.342 226.603 317.342 226.58C317.342 226.558 316.872 226.53 316.105 226.519C315.338 226.508 314.287 226.513 313.123 226.53C312.015 226.552 311.008 226.575 310.146 226.592C309.385 226.608 308.909 226.625 308.909 226.653Z" fill="#263238"/>
<path d="M312.591 222.859C312.513 222.859 312.496 223.699 312.552 224.723C312.608 225.747 312.72 226.575 312.792 226.569C312.871 226.569 312.888 225.73 312.832 224.706C312.776 223.682 312.664 222.854 312.591 222.859Z" fill="#263238"/>
<path opacity="0.6" d="M317.789 227.643L308.965 227.352L308.909 226.513L317.342 226.586L317.789 227.548" fill="white"/>
<path d="M319.496 135.381C326.137 156.335 317.576 181.772 319.63 206.191C319.831 208.591 320.805 211.461 318.561 212.827C317.957 213.196 317.241 213.342 316.536 213.319C314.745 213.258 313.246 212.329 311.645 211.691C308.607 210.477 305.149 210.342 302.021 211.316C299.901 211.976 297.802 213.146 295.609 212.81C292.694 212.368 290.808 209.492 288.122 208.266C285.61 207.125 282.711 207.55 279.953 207.483C279.925 207.483 279.897 207.483 279.869 207.483C275.891 207.36 273.104 203.488 274.156 199.644C278.162 184.967 291.457 137.277 297.343 128.571L314.935 127.821C316.558 129.78 318.64 132.706 319.496 135.375V135.381Z" fill="#3069B1"/>
<path d="M313.329 145.245C313.357 145.273 312.993 145.732 312.372 146.448C311.746 147.159 310.873 148.144 309.776 149.101C308.674 150.057 307.544 150.757 306.71 151.21C305.871 151.658 305.328 151.887 305.311 151.859C305.249 151.758 307.404 150.757 309.58 148.882C310.66 147.942 311.555 146.985 312.216 146.308C312.876 145.626 313.296 145.217 313.324 145.245H313.329Z" fill="#263238"/>
<g opacity="0.1">
<path d="M305.563 153.152C300.024 167.33 298.977 183.227 302.614 198.004C302.928 199.286 303.252 200.741 302.525 201.837C301.579 203.259 299.296 203.163 298.004 202.044C296.711 200.931 296.196 199.168 295.872 197.495C293.455 184.995 297.83 172.428 302.558 160.605" fill="black"/>
</g>
<path d="M205.785 160.213H172.442V161.836H205.785V160.213Z" fill="#263238"/>
<path d="M167.278 161.836L161.022 138.402H187.057L192.72 161.836H167.278Z" fill="#263238"/>
<path d="M191.159 160.062H167.904L162.488 139.482H185.865L191.159 160.062Z" fill="#F5F5F5"/>
<path d="M162.879 140.959H186.263L185.871 139.482H162.493L162.885 140.959H162.879Z" fill="#EBEBEB"/>
<path d="M165.403 140.221C165.403 140.36 165.515 140.478 165.66 140.478C165.806 140.478 165.918 140.366 165.918 140.221C165.918 140.075 165.806 139.963 165.66 139.963C165.515 139.963 165.403 140.075 165.403 140.221Z" fill="#FAFAFA"/>
<path d="M164.524 140.221C164.524 140.36 164.636 140.478 164.782 140.478C164.927 140.478 165.039 140.366 165.039 140.221C165.039 140.075 164.927 139.963 164.782 139.963C164.636 139.963 164.524 140.075 164.524 140.221Z" fill="#FAFAFA"/>
<path d="M163.646 140.221C163.646 140.36 163.758 140.478 163.903 140.478C164.049 140.478 164.161 140.366 164.161 140.221C164.161 140.075 164.049 139.963 163.903 139.963C163.758 139.963 163.646 140.075 163.646 140.221Z" fill="#FAFAFA"/>
<path d="M180.449 149.979L183.012 152.905C184.008 152.195 184.59 151.109 184.584 149.962C184.579 147.914 182.704 146.236 180.438 146.247C178.172 146.258 176.314 147.948 176.32 149.996L180.455 149.979H180.449Z" fill="#3069B1"/>
<path d="M180.124 150.449C180.124 150.449 180.399 150.69 180.857 151.182C181.316 151.674 181.971 152.391 182.749 153.264L182.838 153.364L182.726 153.448C181.691 154.226 179.962 154.556 178.412 153.873C177.674 153.56 177.064 153.04 176.638 152.447C176.219 151.842 176.006 151.154 175.978 150.522V150.393H176.101C177.327 150.388 178.34 150.393 179.045 150.404C179.75 150.416 180.141 150.432 180.13 150.455C180.119 150.477 179.71 150.511 179.005 150.544C178.3 150.578 177.304 150.611 176.113 150.645L176.236 150.516C176.269 151.104 176.476 151.73 176.874 152.29C177.276 152.838 177.847 153.32 178.535 153.61C179.985 154.248 181.607 153.963 182.592 153.252L182.57 153.431C181.825 152.564 181.216 151.831 180.79 151.311C180.365 150.79 180.124 150.477 180.13 150.455L180.124 150.449Z" fill="#263238"/>
<path d="M178.451 147.769C178.451 147.898 178.558 147.998 178.686 147.998C178.815 147.998 178.916 147.892 178.916 147.763C178.916 147.635 178.81 147.534 178.681 147.534C178.552 147.534 178.451 147.64 178.451 147.769Z" fill="#263238"/>
<path d="M173.847 146.09C173.847 146.012 175.083 145.939 176.611 145.934C176.74 145.934 176.863 145.934 176.98 145.934H177.042L177.081 145.978C178.038 146.941 178.732 147.718 178.681 147.769C178.631 147.819 177.847 147.131 176.879 146.185L176.98 146.225C176.863 146.225 176.74 146.225 176.611 146.225C175.083 146.23 173.847 146.169 173.847 146.09Z" fill="#263238"/>
<path d="M168.609 149.022C168.609 149.022 168.503 148.653 168.346 147.942C168.189 147.232 167.966 146.191 167.714 144.921L167.686 144.781H167.831C169.476 144.764 171.468 144.747 173.617 144.731C173.589 144.703 173.891 144.954 173.762 144.848V144.859V144.876L173.774 144.91L173.785 144.977L173.813 145.117L173.863 145.391C173.897 145.575 173.93 145.754 173.964 145.934C174.031 146.292 174.098 146.644 174.16 146.991C174.288 147.679 174.406 148.34 174.523 148.966L174.551 149.123H174.395C172.655 149.123 171.194 149.095 170.181 149.078C169.717 149.067 169.325 149.056 169.006 149.045C168.738 149.033 168.598 149.022 168.609 149.011C168.62 149 168.777 148.989 169.057 148.977C169.381 148.966 169.778 148.955 170.254 148.938C171.278 148.91 172.705 148.877 174.395 148.86L174.266 149.017C174.143 148.396 174.014 147.735 173.88 147.047C173.813 146.7 173.746 146.348 173.678 145.989C173.645 145.81 173.611 145.631 173.578 145.447L173.527 145.173L173.499 145.033L173.488 144.966V144.932L173.477 144.915V144.904C173.348 144.798 173.65 145.049 173.623 145.021C171.474 145.021 169.482 145.021 167.837 145.021L167.954 144.882C168.173 146.113 168.34 147.137 168.458 147.858C168.575 148.586 168.637 149.005 168.62 149.028L168.609 149.022Z" fill="#263238"/>
<path d="M178.105 152.43C178.105 152.559 178.211 152.659 178.34 152.659C178.468 152.659 178.569 152.553 178.569 152.424C178.569 152.296 178.463 152.195 178.334 152.195C178.205 152.195 178.105 152.301 178.105 152.43Z" fill="#263238"/>
<path d="M174.138 152.441C174.138 152.363 175.078 152.29 176.236 152.284C177.394 152.284 178.34 152.34 178.34 152.424C178.34 152.508 177.4 152.575 176.236 152.581C175.078 152.581 174.132 152.525 174.132 152.441H174.138Z" fill="#263238"/>
<path d="M168.631 154.271C168.631 154.271 168.531 154.013 168.38 153.499C168.229 152.984 168.01 152.223 167.753 151.272L167.719 151.137H167.859C169.437 151.104 171.53 151.087 173.824 151.076C173.695 150.981 173.997 151.21 173.964 151.188V151.199V151.21L173.975 151.232L173.986 151.283L174.014 151.384L174.065 151.585L174.165 151.977C174.232 152.24 174.3 152.497 174.361 152.749C174.49 153.252 174.613 153.745 174.73 154.215L174.775 154.388H174.602C172.834 154.388 171.323 154.366 170.271 154.344C169.79 154.332 169.387 154.321 169.051 154.31C168.771 154.299 168.626 154.288 168.637 154.276C168.648 154.265 168.81 154.254 169.107 154.237C169.448 154.226 169.862 154.209 170.355 154.192C171.412 154.164 172.89 154.131 174.607 154.114L174.473 154.288C174.35 153.818 174.221 153.331 174.093 152.827C174.025 152.575 173.958 152.318 173.891 152.055L173.79 151.663L173.74 151.462L173.712 151.361L173.701 151.311V151.288L173.69 151.277V151.266C173.656 151.244 173.958 151.473 173.83 151.372C171.535 151.384 169.437 151.372 167.865 151.361L167.971 151.227C168.195 152.144 168.363 152.894 168.48 153.426C168.598 153.957 168.659 154.265 168.643 154.282L168.631 154.271Z" fill="#263238"/>
<path d="M169.068 146.163C169.068 146.085 169.952 146.012 171.049 146.012C172.14 146.012 173.03 146.068 173.03 146.152C173.03 146.236 172.146 146.303 171.049 146.303C169.958 146.303 169.068 146.247 169.068 146.163Z" fill="#263238"/>
<path d="M169.118 146.812C169.118 146.734 170.008 146.661 171.11 146.661C172.213 146.661 173.102 146.717 173.102 146.801C173.102 146.885 172.213 146.952 171.11 146.952C170.014 146.952 169.118 146.896 169.118 146.812Z" fill="#263238"/>
<path d="M169.236 147.439C169.236 147.36 170.097 147.288 171.155 147.288C172.218 147.288 173.074 147.344 173.08 147.428C173.08 147.506 172.218 147.579 171.161 147.579C170.097 147.579 169.241 147.523 169.236 147.439Z" fill="#263238"/>
<path d="M169.186 152.391C169.186 152.312 170.03 152.24 171.071 152.24C172.112 152.24 172.957 152.296 172.957 152.38C172.957 152.458 172.112 152.531 171.071 152.531C170.03 152.531 169.186 152.475 169.186 152.391Z" fill="#263238"/>
<path d="M169.421 153.107C169.421 153.029 170.142 152.956 171.026 152.956C171.916 152.956 172.638 153.017 172.638 153.096C172.638 153.174 171.916 153.247 171.032 153.247C170.142 153.247 169.421 153.185 169.421 153.107Z" fill="#263238"/>
<path d="M132.961 161.757V164.835H134.975V227.061H139.105V164.835H161.022V227.061H165.151V164.835H260.234V227.045H264.364V164.835H266.154V161.757H132.961Z" fill="#263238"/>
<path d="M222.51 184.945C222.51 185.006 223.713 185.057 225.196 185.057C226.679 185.057 227.882 185.006 227.882 184.945C227.882 184.883 226.679 184.833 225.196 184.833C223.713 184.833 222.51 184.883 222.51 184.945Z" fill="#263238"/>
<path d="M183.392 185.583C183.473 185.583 183.538 185.55 183.538 185.51C183.538 185.47 183.473 185.437 183.392 185.437C183.312 185.437 183.247 185.47 183.247 185.51C183.247 185.55 183.312 185.583 183.392 185.583Z" fill="#455A64"/>
<path d="M209.708 130.194L194.281 114.521L193.945 112.825C193.884 112.518 193.817 112.171 193.755 111.773C193.688 111.315 193.694 110.845 193.778 110.391C193.878 109.843 194.041 109.116 194.253 108.746C194.511 108.293 194.097 107.745 193.666 107.935C193.235 108.125 192.491 109.356 192.328 111.046C192.166 112.741 190.722 110.492 190.185 109.686C189.643 108.875 187.858 106.452 187.488 106.424C186.94 106.379 186.8 106.973 187.36 107.767C187.925 108.573 189.43 111.068 188.999 111.337C188.999 111.337 188.994 111.337 188.982 111.337C188.115 111.192 187.253 111.617 186.85 112.395C186.459 113.144 186.028 114.202 186.38 114.694C187.052 115.618 188.842 117.302 188.842 117.302L189.357 117.744C189.357 117.744 202.702 137.082 205.612 137.708C207.419 138.1 235.385 140.416 235.385 140.416L237.495 132.712L209.697 130.194H209.708Z" fill="#B78876"/>
<path d="M186.274 114.364C186.75 114.823 187.225 115.276 187.701 115.735C187.863 115.892 188.031 116.048 188.238 116.127C188.445 116.205 188.708 116.188 188.859 116.026C188.999 115.875 189.01 115.646 188.943 115.455C188.876 115.265 188.742 115.103 188.613 114.946C188.149 114.392 187.69 113.833 187.225 113.279" fill="#B78876"/>
<path d="M187.231 113.279C187.265 113.251 187.527 113.519 187.936 113.967C188.165 114.224 188.4 114.493 188.641 114.767C188.77 114.918 188.921 115.075 189.033 115.299C189.145 115.517 189.184 115.836 188.993 116.093C188.781 116.351 188.451 116.356 188.21 116.272C187.964 116.183 187.796 116.02 187.651 115.881C187.393 115.618 187.147 115.366 186.901 115.12C186.481 114.683 186.235 114.392 186.263 114.364C186.291 114.336 186.587 114.571 187.041 114.968C187.298 115.198 187.561 115.438 187.83 115.685C187.975 115.819 188.126 115.948 188.294 116.004C188.456 116.06 188.663 116.032 188.753 115.914C188.848 115.791 188.842 115.584 188.764 115.427C188.686 115.259 188.546 115.103 188.423 114.946C188.199 114.655 187.981 114.381 187.768 114.107C187.399 113.626 187.186 113.312 187.22 113.284L187.231 113.279Z" fill="#AA6550"/>
<path d="M187.287 113.368C187.763 113.827 188.238 114.28 188.714 114.739C188.876 114.896 189.044 115.052 189.251 115.131C189.458 115.209 189.721 115.192 189.872 115.03C190.012 114.879 190.023 114.65 189.956 114.459C189.889 114.269 189.755 114.107 189.626 113.95C189.162 113.396 188.703 112.837 188.238 112.283" fill="#B78876"/>
<path d="M188.244 112.283C188.277 112.255 188.54 112.523 188.949 112.971C189.178 113.228 189.413 113.497 189.654 113.771C189.783 113.922 189.934 114.079 190.046 114.303C190.157 114.521 190.202 114.84 190.006 115.097C189.794 115.355 189.464 115.36 189.223 115.276C188.977 115.187 188.809 115.024 188.664 114.885C188.406 114.622 188.16 114.37 187.914 114.124C187.494 113.687 187.248 113.396 187.276 113.368C187.304 113.34 187.6 113.575 188.054 113.973C188.311 114.202 188.574 114.443 188.843 114.689C188.988 114.823 189.139 114.952 189.307 115.008C189.469 115.064 189.676 115.036 189.766 114.918C189.861 114.801 189.855 114.588 189.777 114.431C189.699 114.263 189.559 114.107 189.436 113.95C189.212 113.659 188.994 113.385 188.781 113.111C188.412 112.63 188.199 112.316 188.233 112.288L188.244 112.283Z" fill="#AA6550"/>
<path d="M188.395 112.551C188.871 113.01 189.347 113.463 189.822 113.922C189.984 114.079 190.152 114.236 190.359 114.314C190.566 114.392 190.829 114.375 190.98 114.213C191.12 114.062 191.131 113.833 191.064 113.642C190.997 113.452 190.863 113.29 190.734 113.133C190.27 112.579 189.811 112.02 189.347 111.466" fill="#B78876"/>
<path d="M189.352 111.466C189.385 111.438 189.648 111.706 190.057 112.154C190.286 112.411 190.521 112.68 190.762 112.954C190.89 113.105 191.042 113.262 191.153 113.486C191.265 113.704 191.305 114.023 191.114 114.28C190.902 114.538 190.572 114.543 190.331 114.459C190.085 114.37 189.917 114.207 189.771 114.068C189.514 113.805 189.268 113.553 189.022 113.307C188.602 112.87 188.356 112.579 188.384 112.551C188.412 112.523 188.708 112.758 189.161 113.156C189.419 113.385 189.682 113.626 189.95 113.872C190.096 114.006 190.247 114.135 190.415 114.191C190.577 114.247 190.784 114.219 190.874 114.101C190.969 113.978 190.963 113.771 190.885 113.614C190.807 113.447 190.667 113.29 190.544 113.133C190.32 112.842 190.102 112.568 189.889 112.294C189.52 111.813 189.307 111.499 189.341 111.471L189.352 111.466Z" fill="#AA6550"/>
<path d="M190.65 114.918C190.65 114.873 191.002 114.801 191.517 114.957L191.355 115.097C191.288 114.823 191.254 114.476 191.316 114.118C191.4 113.603 191.635 113.178 191.853 112.926C192.071 112.669 192.256 112.568 192.284 112.596C192.345 112.652 191.752 113.223 191.607 114.168C191.551 114.493 191.562 114.801 191.596 115.052L191.624 115.276L191.428 115.192C190.98 115.002 190.644 114.974 190.644 114.918H190.65Z" fill="#AA6550"/>
<path d="M229.913 106.698L229.98 128.162L221.609 128.56L221.268 123.412C221.268 123.412 217.228 124.027 216.388 120.989C215.851 119.048 215.986 104.052 215.986 104.052L229.913 106.693V106.698Z" fill="#B78876"/>
<path d="M213.904 106.172C214.525 107.454 217.479 109.804 217.479 109.804L218.811 113.379C219.969 112.473 221.525 112.523 221.822 114.56C222.034 116.032 220.204 116.328 220.204 116.328C221.268 118.141 221.995 119.607 223.545 121.33C225.224 123.199 226.164 123.384 227.988 123.418H229.996C229.996 123.418 234.103 119.982 233.292 110.945C232.481 101.909 224.351 104.544 222.409 102.284C219.248 98.6019 211.834 101.892 213.904 106.178V106.172Z" fill="#263238"/>
<path d="M232.833 118.505C232.833 118.505 232.475 118.577 231.837 118.46C231.205 118.348 230.31 117.99 229.437 117.223C228.558 116.468 227.786 115.315 227.014 114.017C226.231 112.741 225.38 111.248 223.937 110.257C222.482 109.284 220.77 109.082 219.298 108.786C217.815 108.506 216.467 108.08 215.555 107.359C214.637 106.648 214.189 105.764 214.055 105.137C213.915 104.499 214.016 104.147 214.016 104.147C214.038 104.147 213.954 104.505 214.1 105.132C214.245 105.747 214.699 106.609 215.605 107.297C216.512 107.997 217.838 108.411 219.32 108.685C220.786 108.981 222.515 109.172 224.004 110.168C225.475 111.186 226.326 112.691 227.104 113.972C227.87 115.276 228.631 116.418 229.493 117.173C230.343 117.934 231.228 118.298 231.849 118.426C232.162 118.494 232.408 118.505 232.576 118.51C232.744 118.51 232.833 118.51 232.833 118.51V118.505Z" fill="#455A64"/>
<path d="M233.303 111.152C233.303 111.152 233.152 111.108 232.872 111.024C232.587 110.94 232.173 110.8 231.614 110.744C231.065 110.688 230.332 110.722 229.678 111.18C229.359 111.404 229.079 111.757 229.006 112.199C228.933 112.63 229.034 113.15 229.398 113.48C229.577 113.642 229.823 113.738 230.075 113.749C230.327 113.76 230.59 113.676 230.819 113.547C231.283 113.279 231.658 112.814 231.832 112.255C232.207 111.158 231.944 109.726 230.936 108.858C230.45 108.422 229.812 108.12 229.129 108.053C228.441 107.98 227.742 108.131 227.048 108.327C226.354 108.523 225.643 108.752 224.893 108.842C224.149 108.942 223.377 108.948 222.61 108.847C221.844 108.741 221.094 108.562 220.406 108.237C219.729 107.918 219.102 107.381 218.901 106.648C218.699 105.932 218.89 105.121 219.41 104.623C219.936 104.108 220.758 104.046 221.374 104.332C221.682 104.471 221.956 104.712 222.101 105.02C222.258 105.316 222.297 105.663 222.258 105.982C222.174 106.626 221.788 107.191 221.279 107.515C220.77 107.846 220.176 107.963 219.623 107.974C219.069 107.985 218.537 107.885 218.056 107.734C217.082 107.431 216.316 106.883 215.751 106.312C215.18 105.742 214.816 105.143 214.575 104.634C214.329 104.125 214.234 103.694 214.161 103.403C214.111 103.112 214.089 102.955 214.089 102.955C214.089 102.955 214.122 103.106 214.184 103.397C214.262 103.683 214.368 104.108 214.62 104.611C214.866 105.115 215.236 105.708 215.801 106.262C216.36 106.822 217.127 107.359 218.084 107.65C218.559 107.795 219.08 107.896 219.628 107.879C220.171 107.868 220.742 107.745 221.228 107.426C221.715 107.113 222.079 106.57 222.157 105.96C222.252 105.35 221.939 104.679 221.329 104.421C220.747 104.153 219.969 104.214 219.483 104.695C218.996 105.165 218.811 105.937 219.001 106.609C219.192 107.297 219.79 107.812 220.451 108.125C221.117 108.444 221.866 108.618 222.616 108.724C223.371 108.819 224.132 108.819 224.871 108.724C225.61 108.634 226.309 108.405 227.008 108.209C227.702 108.013 228.424 107.857 229.129 107.935C229.834 108.008 230.494 108.321 230.992 108.769C232.033 109.67 232.302 111.147 231.91 112.277C231.731 112.853 231.339 113.335 230.853 113.614C230.606 113.749 230.332 113.838 230.058 113.827C229.784 113.81 229.521 113.71 229.331 113.536C228.939 113.178 228.844 112.63 228.922 112.182C229 111.718 229.303 111.354 229.633 111.124C230.315 110.66 231.065 110.638 231.614 110.699C232.179 110.766 232.593 110.912 232.878 111.001C233.158 111.096 233.303 111.152 233.303 111.152Z" fill="#455A64"/>
<path d="M222.667 221.819L219.93 218.31L226.472 213.146L230.528 218.238L230.142 218.584C228.419 220.112 221.257 226.222 219.763 226.81C218.095 227.464 222.667 221.824 222.667 221.824V221.819Z" fill="#3069B1"/>
<g opacity="0.4">
<path d="M220.513 224.672C220.513 224.672 219.008 226.771 219.505 226.899C220.003 227.028 227.468 221.125 230.534 218.232L230.405 218.092L221.755 225.053C221.755 225.053 220.904 224.381 220.513 224.667V224.672Z" fill="white"/>
</g>
<path d="M230.506 218.014C230.506 218.014 230.472 218.053 230.405 218.114C230.316 218.198 230.209 218.288 230.097 218.389C229.784 218.657 229.403 218.987 228.95 219.379C227.977 220.207 226.611 221.337 225.078 222.552C223.545 223.766 222.135 224.835 221.105 225.59C220.624 225.942 220.21 226.239 219.88 226.48C219.757 226.569 219.645 226.647 219.544 226.715C219.466 226.765 219.427 226.793 219.421 226.793C219.421 226.793 219.455 226.759 219.533 226.698C219.634 226.619 219.74 226.541 219.858 226.446C220.188 226.2 220.591 225.892 221.066 225.528C222.085 224.756 223.489 223.676 225.022 222.468C226.555 221.253 227.921 220.134 228.911 219.317C229.37 218.937 229.762 218.612 230.081 218.349C230.198 218.254 230.304 218.165 230.399 218.086C230.472 218.03 230.511 217.997 230.517 218.002L230.506 218.014Z" fill="#263238"/>
<path d="M221.838 225.159C221.838 225.159 221.575 224.913 221.167 224.767C220.764 224.616 220.406 224.661 220.4 224.633C220.389 224.611 220.77 224.51 221.2 224.672C221.637 224.829 221.861 225.148 221.838 225.159Z" fill="#263238"/>
<path d="M222.991 222.652C222.991 222.652 222.801 222.641 222.588 222.563C222.376 222.49 222.208 222.406 222.219 222.378C222.23 222.35 222.409 222.389 222.622 222.468C222.834 222.546 223.002 222.624 222.991 222.652Z" fill="#263238"/>
<path d="M223.299 221.953C223.299 221.953 223.142 221.992 222.946 221.981C222.756 221.97 222.6 221.936 222.6 221.908C222.6 221.88 222.756 221.869 222.952 221.88C223.142 221.891 223.299 221.925 223.299 221.953Z" fill="#263238"/>
<path d="M223.148 221.074C223.148 221.074 223.031 221.237 222.84 221.388C222.656 221.539 222.488 221.645 222.471 221.623C222.454 221.6 222.589 221.46 222.779 221.309C222.969 221.158 223.131 221.052 223.148 221.074Z" fill="#263238"/>
<path d="M222.919 220.548C222.919 220.548 222.835 220.767 222.628 220.963C222.421 221.153 222.202 221.242 222.191 221.22C222.174 221.192 222.359 221.069 222.555 220.89C222.751 220.711 222.891 220.537 222.919 220.554V220.548Z" fill="#263238"/>
<path d="M222.32 222.255C222.32 222.255 222.18 222.412 221.9 222.585C221.76 222.675 221.581 222.764 221.374 222.843C221.268 222.876 221.167 222.927 221.033 222.938C220.971 222.938 220.893 222.938 220.826 222.887C220.758 222.837 220.736 222.742 220.758 222.669C220.993 222.143 221.575 222.054 221.889 222.143C222.057 222.182 222.174 222.261 222.247 222.317C222.32 222.373 222.353 222.417 222.348 222.423C222.336 222.44 222.191 222.277 221.872 222.216C221.715 222.182 221.525 222.188 221.329 222.266C221.145 222.339 220.926 222.496 220.854 222.697C220.826 222.798 220.915 222.859 221.021 222.843C221.128 222.831 221.234 222.787 221.335 222.759C221.536 222.686 221.715 222.608 221.855 222.529C222.141 222.373 222.303 222.249 222.314 222.261L222.32 222.255Z" fill="#263238"/>
<path d="M222.225 222.367C222.225 222.367 222.074 222.317 221.945 222.115C221.883 222.014 221.827 221.875 221.816 221.718C221.816 221.567 221.811 221.36 221.995 221.226C222.102 221.158 222.236 221.237 222.281 221.315C222.331 221.393 222.348 221.483 222.359 221.561C222.381 221.718 222.376 221.858 222.359 221.97C222.331 222.205 222.264 222.333 222.253 222.328C222.236 222.328 222.275 222.188 222.286 221.964C222.286 221.852 222.286 221.718 222.264 221.572C222.253 221.438 222.163 221.248 222.046 221.309C221.934 221.382 221.906 221.572 221.911 221.707C221.917 221.852 221.956 221.975 222.007 222.076C222.107 222.272 222.236 222.35 222.225 222.367Z" fill="#263238"/>
<path d="M228.956 216.329C228.956 216.329 228.755 216.458 228.486 216.727C228.217 216.99 227.904 217.432 227.775 217.997C227.647 218.556 227.731 219.094 227.854 219.446C227.977 219.804 228.117 220 228.1 220.011C228.1 220.011 228.055 219.972 227.994 219.877C227.932 219.787 227.859 219.648 227.787 219.469C227.641 219.11 227.54 218.556 227.68 217.969C227.815 217.381 228.15 216.928 228.441 216.671C228.587 216.542 228.715 216.447 228.811 216.397C228.906 216.341 228.962 216.318 228.962 216.324L228.956 216.329Z" fill="#263238"/>
<path d="M226.125 214.142C226.125 214.142 226.645 214.707 227.244 215.44C227.843 216.173 228.307 216.783 228.285 216.799C228.262 216.816 227.764 216.234 227.165 215.501C226.567 214.768 226.102 214.158 226.125 214.142Z" fill="#263238"/>
<path d="M226.791 220.067C226.791 220.067 226.438 220.492 225.912 220.918C225.386 221.343 224.911 221.617 224.894 221.595C224.877 221.572 225.325 221.259 225.845 220.834C226.365 220.414 226.768 220.045 226.791 220.062V220.067Z" fill="#263238"/>
<path d="M228.072 219.054C228.1 219.054 228.111 219.172 228.145 219.306C228.178 219.441 228.223 219.547 228.201 219.558C228.178 219.575 228.083 219.48 228.05 219.329C228.01 219.178 228.05 219.049 228.077 219.054H228.072Z" fill="#263238"/>
<path d="M228.078 218.07C228.078 218.07 228.117 218.176 228.106 218.293C228.095 218.417 228.061 218.512 228.033 218.512C228.005 218.512 227.994 218.405 228.005 218.282C228.016 218.159 228.05 218.064 228.078 218.064V218.07Z" fill="#263238"/>
<path d="M228.553 217.253C228.553 217.253 228.48 217.348 228.408 217.454C228.335 217.56 228.307 217.672 228.279 217.667C228.251 217.667 228.234 217.532 228.324 217.398C228.413 217.264 228.542 217.225 228.553 217.247V217.253Z" fill="#263238"/>
<path d="M228.945 216.732C228.945 216.732 228.956 216.811 228.923 216.872C228.883 216.934 228.833 216.979 228.811 216.962C228.788 216.945 228.799 216.883 228.833 216.822C228.872 216.76 228.923 216.716 228.945 216.732Z" fill="#263238"/>
<g opacity="0.3">
<path d="M228.811 216.162L222.191 221.214L221.576 220.42L228.531 215.703L228.811 216.162Z" fill="black"/>
</g>
<path d="M192.58 225.344L192.591 220.895L200.928 220.867L200.979 227.38L200.464 227.414C198.164 227.548 188.758 227.946 187.219 227.481C185.502 226.966 192.58 225.344 192.58 225.344Z" fill="#3069B1"/>
<g opacity="0.4">
<path d="M189.122 226.256C189.122 226.256 186.643 226.983 186.951 227.386C187.264 227.794 196.782 227.755 200.978 227.369L200.962 227.184L189.86 227.324C189.86 227.324 189.603 226.272 189.116 226.256H189.122Z" fill="white"/>
</g>
<path d="M201.096 227.179C201.096 227.179 201.046 227.19 200.951 227.196C200.828 227.201 200.693 227.213 200.537 227.224C200.123 227.24 199.619 227.268 199.02 227.296C197.739 227.347 195.971 227.397 194.018 227.408C192.065 227.42 190.291 227.386 189.016 227.347C188.417 227.324 187.913 227.308 187.499 227.291C187.348 227.285 187.214 227.274 187.085 227.268C186.99 227.263 186.94 227.257 186.94 227.252C186.94 227.252 186.99 227.252 187.085 227.246C187.208 227.246 187.343 227.246 187.499 227.246C187.913 227.252 188.417 227.263 189.016 227.268C190.297 227.291 192.065 227.308 194.018 227.296C195.971 227.285 197.739 227.252 199.02 227.218C199.619 227.201 200.123 227.19 200.537 227.179C200.688 227.179 200.828 227.179 200.951 227.173C201.046 227.173 201.096 227.173 201.096 227.173V227.179Z" fill="#263238"/>
<path d="M189.866 227.459C189.838 227.459 189.81 227.101 189.58 226.737C189.357 226.368 189.043 226.183 189.06 226.161C189.066 226.133 189.424 226.289 189.664 226.686C189.911 227.078 189.888 227.47 189.866 227.464V227.459Z" fill="#263238"/>
<path d="M192.323 226.2C192.323 226.2 192.183 226.071 192.06 225.881C191.936 225.69 191.858 225.523 191.88 225.506C191.903 225.489 192.02 225.635 192.143 225.825C192.267 226.015 192.345 226.183 192.323 226.2Z" fill="#263238"/>
<path d="M192.994 225.842C192.994 225.842 192.843 225.774 192.697 225.646C192.552 225.517 192.451 225.394 192.468 225.377C192.485 225.355 192.619 225.444 192.764 225.573C192.91 225.702 193.01 225.825 192.994 225.842Z" fill="#263238"/>
<path d="M193.419 225.053C193.419 225.053 193.223 225.109 192.983 225.109C192.742 225.109 192.546 225.092 192.546 225.064C192.546 225.036 192.742 225.008 192.983 225.008C193.223 225.008 193.419 225.025 193.419 225.053Z" fill="#263238"/>
<path d="M193.565 224.493C193.565 224.493 193.363 224.616 193.078 224.639C192.798 224.661 192.569 224.599 192.574 224.571C192.574 224.543 192.798 224.56 193.067 224.538C193.335 224.515 193.548 224.465 193.559 224.493H193.565Z" fill="#263238"/>
<path d="M192.037 225.472C192.037 225.472 191.83 225.511 191.5 225.472C191.338 225.456 191.142 225.416 190.929 225.349C190.823 225.31 190.716 225.288 190.605 225.215C190.554 225.181 190.493 225.131 190.47 225.047C190.448 224.969 190.493 224.879 190.549 224.834C191.058 224.566 191.573 224.851 191.763 225.114C191.869 225.248 191.914 225.383 191.942 225.472C191.964 225.562 191.964 225.618 191.959 225.618C191.942 225.623 191.919 225.405 191.712 225.165C191.612 225.047 191.455 224.93 191.254 224.868C191.063 224.812 190.795 224.801 190.616 224.913C190.532 224.974 190.565 225.075 190.66 225.131C190.75 225.187 190.862 225.221 190.963 225.26C191.164 225.327 191.354 225.372 191.517 225.4C191.836 225.456 192.043 225.456 192.043 225.472H192.037Z" fill="#263238"/>
<path d="M191.897 225.5C191.897 225.5 191.808 225.372 191.835 225.131C191.847 225.013 191.891 224.874 191.981 224.739C192.076 224.622 192.194 224.454 192.423 224.465C192.546 224.482 192.608 224.622 192.591 224.711C192.58 224.806 192.541 224.885 192.501 224.952C192.423 225.086 192.333 225.193 192.25 225.276C192.082 225.439 191.947 225.506 191.942 225.495C191.931 225.483 192.048 225.4 192.194 225.226C192.266 225.142 192.345 225.036 192.417 224.902C192.49 224.79 192.541 224.583 192.406 224.56C192.272 224.549 192.138 224.683 192.054 224.79C191.97 224.907 191.925 225.03 191.903 225.137C191.863 225.355 191.914 225.495 191.897 225.5Z" fill="#263238"/>
<path d="M200.917 224.902C200.917 224.902 200.676 224.879 200.301 224.924C199.926 224.969 199.412 225.12 198.958 225.484C198.511 225.847 198.248 226.317 198.125 226.675C198.002 227.033 197.99 227.274 197.968 227.268C197.963 227.268 197.957 227.207 197.968 227.101C197.974 226.994 198.002 226.838 198.058 226.653C198.164 226.284 198.427 225.786 198.897 225.405C199.367 225.03 199.91 224.879 200.296 224.851C200.492 224.834 200.648 224.851 200.755 224.862C200.861 224.879 200.917 224.896 200.917 224.902Z" fill="#263238"/>
<path d="M200.039 221.438C200.039 221.438 200.1 222.205 200.117 223.15C200.134 224.096 200.122 224.862 200.094 224.862C200.067 224.862 200.033 224.096 200.016 223.15C199.999 222.205 200.011 221.438 200.039 221.438Z" fill="#263238"/>
<path d="M196.905 226.507C196.905 226.507 196.368 226.625 195.691 226.636C195.014 226.647 194.471 226.569 194.471 226.541C194.471 226.513 195.019 226.541 195.691 226.53C196.362 226.524 196.905 226.474 196.911 226.507H196.905Z" fill="#263238"/>
<path d="M198.539 226.502C198.539 226.502 198.494 226.619 198.438 226.742C198.382 226.866 198.354 226.978 198.326 226.978C198.298 226.978 198.282 226.843 198.349 226.703C198.41 226.558 198.522 226.485 198.539 226.502Z" fill="#263238"/>
<path d="M199.149 225.73C199.149 225.73 199.115 225.836 199.031 225.926C198.947 226.015 198.858 226.071 198.841 226.049C198.819 226.032 198.875 225.942 198.959 225.853C199.042 225.763 199.132 225.707 199.149 225.73Z" fill="#263238"/>
<path d="M200.033 225.377C200.027 225.405 199.916 225.405 199.792 225.45C199.669 225.489 199.58 225.562 199.563 225.539C199.541 225.523 199.608 225.405 199.764 225.355C199.916 225.304 200.044 225.355 200.039 225.377H200.033Z" fill="#263238"/>
<path d="M200.66 225.209C200.66 225.209 200.62 225.276 200.553 225.304C200.486 225.332 200.419 225.332 200.408 225.304C200.397 225.276 200.447 225.237 200.514 225.209C200.581 225.181 200.648 225.181 200.66 225.209Z" fill="#263238"/>
<g opacity="0.3">
<path d="M200.979 224.566L192.574 224.577L192.586 223.57L200.951 223.514L200.979 224.566Z" fill="black"/>
</g>
<path d="M213.16 148.524L209.82 158.579C208.919 161.293 206.546 161.757 203.687 161.757H185.116V157.589L202.081 155.166L206.127 144.837L213.16 148.519V148.524Z" fill="#B78876"/>
<path d="M183.074 156.727L181.602 156.028C181.602 156.028 180.013 152.956 179.649 153.079C179.285 153.202 179.179 154.103 179.817 155.513L177.859 154.953C177.859 154.953 173.617 156.912 173.802 157.18C173.992 157.443 174.339 158.07 175.262 157.594C176.186 157.124 177.4 156.565 177.4 156.565L179.688 157.219L176.74 157.594L173.964 160.118C173.964 160.118 174.876 160.801 175.66 160.079L182.861 161.629L185.116 161.757V157.589L183.074 156.721V156.727Z" fill="#B78876"/>
<path d="M175.659 160.084C175.687 160.107 175.822 159.894 176.085 159.609C176.213 159.469 176.392 159.323 176.611 159.206C176.818 159.088 177.092 159.038 177.388 159.004C178.586 158.864 179.559 158.697 179.548 158.635C179.543 158.574 178.563 158.635 177.36 158.781C177.058 158.814 176.751 158.876 176.504 159.027C176.269 159.172 176.09 159.346 175.962 159.508C175.715 159.838 175.637 160.073 175.659 160.09V160.084Z" fill="#AA6550"/>
<path d="M176.784 160.375C176.784 160.375 176.835 160.224 177.036 160.185C177.243 160.146 177.568 160.107 177.909 160.073C178.603 160 179.168 160.006 179.174 159.944C179.179 159.883 178.603 159.777 177.887 159.849C177.529 159.888 177.221 159.944 176.98 160.034C176.857 160.084 176.779 160.185 176.762 160.258C176.745 160.336 176.768 160.375 176.784 160.375Z" fill="#AA6550"/>
<path d="M214.733 146.336L213.306 151.176L204.241 147.075C204.566 146.062 206.065 141.552 208.936 134.39C210.536 130.401 214.089 127.525 218.33 126.82C221.296 126.327 224.525 125.941 227.009 125.969C232.09 126.025 239.571 129.203 240.578 134.183C241.344 137.988 240.606 144.703 240.606 152.861L239.94 168.449L213.893 169.334L214.727 146.348L214.733 146.336Z" fill="#3069B1"/>
<g opacity="0.3">
<path d="M240.577 149.246C237.41 149.895 234.154 149.246 230.925 149.05C228.967 148.933 226.796 148.72 225.246 149.923C224.021 150.88 223.523 152.48 223.17 153.997C221.822 159.771 221.575 163.637 221.268 169.557L236.946 170.509L240.577 149.246Z" fill="black"/>
</g>
<path d="M214.066 129.416C214.066 129.416 214.329 129.455 214.76 129.623C215.185 129.796 215.767 130.171 216.26 130.837C216.758 131.497 217.094 132.454 217.155 133.551C217.233 134.648 217.071 135.862 216.881 137.121C216.478 139.644 215.863 141.888 215.426 143.505C215.213 144.288 215.034 144.932 214.9 145.424C214.777 145.878 214.715 146.129 214.732 146.135C214.749 146.135 214.839 145.894 214.984 145.447C215.13 144.999 215.337 144.35 215.577 143.55C216.053 141.938 216.696 139.7 217.099 137.154C217.289 135.884 217.446 134.659 217.357 133.534C217.278 132.409 216.914 131.413 216.383 130.742C215.857 130.059 215.236 129.696 214.788 129.539C214.559 129.466 214.38 129.427 214.257 129.416C214.134 129.405 214.066 129.405 214.066 129.416Z" fill="#263238"/>
<path d="M204.526 145.833C204.526 145.833 204.996 146.146 205.802 146.566C206.608 146.985 207.732 147.545 208.997 148.116C210.261 148.686 211.425 149.162 212.27 149.487C213.121 149.811 213.652 149.985 213.663 149.957C213.675 149.929 213.16 149.699 212.332 149.336C211.498 148.972 210.351 148.474 209.086 147.909C207.827 147.338 206.691 146.806 205.869 146.426C205.046 146.04 204.537 145.81 204.52 145.838L204.526 145.833Z" fill="#263238"/>
<path d="M200.369 170.509C195.932 172.931 194.248 178.454 196.581 182.942L219.248 221.863L229.706 215.546L212.103 180.407L224.86 172.081" fill="#263238"/>
<path d="M227.971 168.578L196.855 169.68C191.802 169.859 187.824 174.045 187.902 179.103L189.195 223.548L202.283 223.52L201.846 181.498L227.977 180.81V168.578H227.971Z" fill="#263238"/>
<path d="M201.846 183.014C201.846 183.014 201.868 183.154 201.885 183.423C201.896 183.719 201.913 184.111 201.936 184.603C201.975 185.627 202.014 187.11 202.053 188.945C202.131 192.61 202.182 197.674 202.21 203.264C202.238 208.843 202.266 213.89 202.282 217.583C202.294 219.39 202.299 220.867 202.305 221.925C202.305 222.417 202.305 222.809 202.305 223.105C202.305 223.374 202.294 223.52 202.282 223.52C202.271 223.52 202.26 223.38 202.243 223.111C202.232 222.815 202.215 222.423 202.193 221.93C202.154 220.906 202.115 219.424 202.075 217.588C201.997 213.923 201.947 208.86 201.919 203.264C201.891 197.686 201.863 192.638 201.846 188.945C201.835 187.138 201.829 185.661 201.824 184.603C201.824 184.111 201.824 183.719 201.824 183.423C201.824 183.154 201.835 183.009 201.846 183.009V183.014Z" fill="#455A64"/>
<path d="M241.451 140.372H232.039C228.251 140.372 225.179 143.444 225.179 147.232V180.077H206.367C203.743 180.077 201.617 182.203 201.617 184.827H244.562C244.562 184.827 244.562 184.81 244.562 184.799C246.649 184.71 248.316 182.992 248.316 180.888V147.232C248.316 143.444 245.244 140.372 241.456 140.372H241.451Z" fill="#455A64"/>
<path d="M227.915 141.457C227.993 141.457 228.061 151.109 228.061 163.016C228.061 174.923 227.993 184.575 227.915 184.575C227.837 184.575 227.77 174.923 227.77 163.016C227.77 151.109 227.837 141.457 227.915 141.457Z" fill="#263238"/>
<path d="M226.723 219.306V184.85H223.662V219.306C221.794 222.988 217.401 225.484 212.052 227.52H239.341C233.801 225.271 228.799 223.542 226.729 219.306H226.723Z" fill="#455A64"/>
</svg>
